ISO-10303-21;
HEADER;
/* Generated by software containing ST-Developer
 * from STEP Tools, Inc. (www.steptools.com) 
 */
/* OPTION: using custom renumber hook */

FILE_DESCRIPTION(
/* description */ ('STEP AP242 Edition 2',
'CAx-IF Rec.Pracs.---Representation and Presentation of Product Manufa
cturing Information (PMI)---4.0---2014-10-13',
'CAx-IF Rec.Pracs.---3D Tessellated Geometry---0.4---2014-09-14','2;1',
'CAx-IF Rec.Pracs.---User Defined Attributes---1.5---2016-08-15'),
/* implementation_level */ '2;1');

FILE_NAME(
/* name */ '6a6ab86648685660edcadab0',
/* time_stamp */ '2026-07-30T02:35:18Z',
/* author */ (''),
/* organization */ (''),
/* preprocessor_version */ 'ST-DEVELOPER v20',
/* originating_system */ 'ONSHAPE BY PTC INC, 1.218',
/* authorisation */ '  ');

FILE_SCHEMA (('AP242_MANAGED_MODEL_BASED_3D_ENGINEERING_MIM_LF { 1 0 10303 442 3 1 4 }'));
ENDSEC;

DATA;
#10=CYLINDRICAL_SURFACE('',#1456,0.005);
#11=CYLINDRICAL_SURFACE('',#1457,0.005);
#12=CYLINDRICAL_SURFACE('',#1458,0.005);
#13=CYLINDRICAL_SURFACE('',#1459,0.005);
#14=CYLINDRICAL_SURFACE('',#1460,0.005);
#15=CYLINDRICAL_SURFACE('',#1461,0.005);
#16=CYLINDRICAL_SURFACE('',#1462,0.005);
#17=CYLINDRICAL_SURFACE('',#1463,0.005);
#18=CYLINDRICAL_SURFACE('',#1464,0.005);
#19=CYLINDRICAL_SURFACE('',#1465,0.005);
#20=CYLINDRICAL_SURFACE('',#1466,0.005);
#21=CYLINDRICAL_SURFACE('',#1467,0.005);
#22=CYLINDRICAL_SURFACE('',#1468,0.005);
#23=CYLINDRICAL_SURFACE('',#1469,0.005);
#24=CYLINDRICAL_SURFACE('',#1470,0.005);
#25=CYLINDRICAL_SURFACE('',#1471,0.005);
#26=CYLINDRICAL_SURFACE('',#1472,0.005);
#27=CYLINDRICAL_SURFACE('',#1473,0.005);
#28=CYLINDRICAL_SURFACE('',#1474,0.005);
#29=CYLINDRICAL_SURFACE('',#1475,0.005);
#30=CYLINDRICAL_SURFACE('',#1476,0.005);
#31=CYLINDRICAL_SURFACE('',#1477,0.005);
#32=CYLINDRICAL_SURFACE('',#1478,0.005);
#33=CYLINDRICAL_SURFACE('',#1479,0.005);
#34=CYLINDRICAL_SURFACE('',#1480,0.005);
#35=CYLINDRICAL_SURFACE('',#1481,0.005);
#36=CYLINDRICAL_SURFACE('',#1482,0.005);
#37=CYLINDRICAL_SURFACE('',#1483,0.005);
#38=CYLINDRICAL_SURFACE('',#1484,0.005);
#39=CYLINDRICAL_SURFACE('',#1485,0.005);
#40=CIRCLE('',#1375,0.005);
#41=CIRCLE('',#1376,0.005);
#42=CIRCLE('',#1377,0.005);
#43=CIRCLE('',#1378,0.005);
#44=CIRCLE('',#1379,0.005);
#45=CIRCLE('',#1380,0.005);
#46=CIRCLE('',#1381,0.005);
#47=CIRCLE('',#1382,0.005);
#48=CIRCLE('',#1383,0.005);
#49=CIRCLE('',#1384,0.005);
#50=CIRCLE('',#1385,0.005);
#51=CIRCLE('',#1386,0.005);
#52=CIRCLE('',#1387,0.005);
#53=CIRCLE('',#1388,0.005);
#54=CIRCLE('',#1389,0.005);
#55=CIRCLE('',#1400,0.005);
#56=CIRCLE('',#1401,0.005);
#57=CIRCLE('',#1402,0.005);
#58=CIRCLE('',#1403,0.005);
#59=CIRCLE('',#1404,0.005);
#60=CIRCLE('',#1405,0.005);
#61=CIRCLE('',#1406,0.005);
#62=CIRCLE('',#1407,0.005);
#63=CIRCLE('',#1408,0.005);
#64=CIRCLE('',#1409,0.005);
#65=CIRCLE('',#1410,0.005);
#66=CIRCLE('',#1411,0.005);
#67=CIRCLE('',#1412,0.005);
#68=CIRCLE('',#1413,0.005);
#69=CIRCLE('',#1414,0.005);
#70=CIRCLE('',#1418,0.005);
#71=CIRCLE('',#1419,0.005);
#72=CIRCLE('',#1420,0.005);
#73=CIRCLE('',#1421,0.005);
#74=CIRCLE('',#1422,0.005);
#75=CIRCLE('',#1423,0.005);
#76=CIRCLE('',#1424,0.005);
#77=CIRCLE('',#1425,0.005);
#78=CIRCLE('',#1426,0.005);
#79=CIRCLE('',#1427,0.005);
#80=CIRCLE('',#1428,0.005);
#81=CIRCLE('',#1429,0.005);
#82=CIRCLE('',#1430,0.005);
#83=CIRCLE('',#1431,0.005);
#84=CIRCLE('',#1432,0.005);
#85=CIRCLE('',#1441,0.005);
#86=CIRCLE('',#1442,0.005);
#87=CIRCLE('',#1443,0.005);
#88=CIRCLE('',#1444,0.005);
#89=CIRCLE('',#1445,0.005);
#90=CIRCLE('',#1446,0.005);
#91=CIRCLE('',#1447,0.005);
#92=CIRCLE('',#1448,0.005);
#93=CIRCLE('',#1449,0.005);
#94=CIRCLE('',#1450,0.005);
#95=CIRCLE('',#1451,0.005);
#96=CIRCLE('',#1452,0.005);
#97=CIRCLE('',#1453,0.005);
#98=CIRCLE('',#1454,0.005);
#99=CIRCLE('',#1455,0.005);
#100=DRAUGHTING_PRE_DEFINED_COLOUR('white');
#101=CONTEXT_DEPENDENT_SHAPE_REPRESENTATION(#105,#2212);
#102=CONTEXT_DEPENDENT_SHAPE_REPRESENTATION(#106,#2214);
#103=NEXT_ASSEMBLY_USAGE_OCCURRENCE('NAUO1','Part 1','Part 1',#2215,#2216,
'');
#104=NEXT_ASSEMBLY_USAGE_OCCURRENCE('NAUO2','Part 1','Part 1',#2215,#2217,
'');
#105=(
REPRESENTATION_RELATIONSHIP(' ',' ',#1352,#1351)
REPRESENTATION_RELATIONSHIP_WITH_TRANSFORMATION(#107)
SHAPE_REPRESENTATION_RELATIONSHIP()
);
#106=(
REPRESENTATION_RELATIONSHIP(' ',' ',#1353,#1351)
REPRESENTATION_RELATIONSHIP_WITH_TRANSFORMATION(#108)
SHAPE_REPRESENTATION_RELATIONSHIP()
);
#107=ITEM_DEFINED_TRANSFORMATION(' ',' ',#1354,#1361);
#108=ITEM_DEFINED_TRANSFORMATION(' ',' ',#1354,#1486);
#109=SHAPE_REPRESENTATION_RELATIONSHIP('','',#1352,#111);
#110=SHAPE_REPRESENTATION_RELATIONSHIP('','',#1353,#112);
#111=ADVANCED_BREP_SHAPE_REPRESENTATION('',(#1346),#2202);
#112=ADVANCED_BREP_SHAPE_REPRESENTATION('',(#1347),#2203);
#113=ORIENTED_EDGE('',*,*,#425,.F.);
#114=ORIENTED_EDGE('',*,*,#426,.F.);
#115=ORIENTED_EDGE('',*,*,#427,.T.);
#116=ORIENTED_EDGE('',*,*,#428,.T.);
#117=ORIENTED_EDGE('',*,*,#429,.T.);
#118=ORIENTED_EDGE('',*,*,#430,.F.);
#119=ORIENTED_EDGE('',*,*,#431,.F.);
#120=ORIENTED_EDGE('',*,*,#426,.T.);
#121=ORIENTED_EDGE('',*,*,#432,.T.);
#122=ORIENTED_EDGE('',*,*,#433,.F.);
#123=ORIENTED_EDGE('',*,*,#434,.F.);
#124=ORIENTED_EDGE('',*,*,#430,.T.);
#125=ORIENTED_EDGE('',*,*,#435,.F.);
#126=ORIENTED_EDGE('',*,*,#428,.F.);
#127=ORIENTED_EDGE('',*,*,#436,.T.);
#128=ORIENTED_EDGE('',*,*,#433,.T.);
#129=ORIENTED_EDGE('',*,*,#427,.F.);
#130=ORIENTED_EDGE('',*,*,#431,.T.);
#131=ORIENTED_EDGE('',*,*,#434,.T.);
#132=ORIENTED_EDGE('',*,*,#436,.F.);
#133=ORIENTED_EDGE('',*,*,#425,.T.);
#134=ORIENTED_EDGE('',*,*,#435,.T.);
#135=ORIENTED_EDGE('',*,*,#432,.F.);
#136=ORIENTED_EDGE('',*,*,#429,.F.);
#137=ORIENTED_EDGE('',*,*,#437,.F.);
#138=ORIENTED_EDGE('',*,*,#438,.F.);
#139=ORIENTED_EDGE('',*,*,#439,.T.);
#140=ORIENTED_EDGE('',*,*,#440,.T.);
#141=ORIENTED_EDGE('',*,*,#441,.F.);
#142=ORIENTED_EDGE('',*,*,#442,.F.);
#143=ORIENTED_EDGE('',*,*,#443,.F.);
#144=ORIENTED_EDGE('',*,*,#444,.T.);
#145=ORIENTED_EDGE('',*,*,#445,.T.);
#146=ORIENTED_EDGE('',*,*,#446,.F.);
#147=ORIENTED_EDGE('',*,*,#447,.T.);
#148=ORIENTED_EDGE('',*,*,#442,.T.);
#149=ORIENTED_EDGE('',*,*,#448,.F.);
#150=ORIENTED_EDGE('',*,*,#449,.T.);
#151=ORIENTED_EDGE('',*,*,#450,.F.);
#152=ORIENTED_EDGE('',*,*,#451,.F.);
#153=ORIENTED_EDGE('',*,*,#452,.T.);
#154=ORIENTED_EDGE('',*,*,#453,.T.);
#155=ORIENTED_EDGE('',*,*,#454,.F.);
#156=ORIENTED_EDGE('',*,*,#455,.F.);
#157=ORIENTED_EDGE('',*,*,#456,.F.);
#158=ORIENTED_EDGE('',*,*,#457,.T.);
#159=ORIENTED_EDGE('',*,*,#458,.T.);
#160=ORIENTED_EDGE('',*,*,#459,.F.);
#161=ORIENTED_EDGE('',*,*,#460,.T.);
#162=ORIENTED_EDGE('',*,*,#455,.T.);
#163=ORIENTED_EDGE('',*,*,#461,.F.);
#164=ORIENTED_EDGE('',*,*,#462,.F.);
#165=ORIENTED_EDGE('',*,*,#463,.F.);
#166=ORIENTED_EDGE('',*,*,#464,.T.);
#167=ORIENTED_EDGE('',*,*,#465,.F.);
#168=ORIENTED_EDGE('',*,*,#466,.F.);
#169=ORIENTED_EDGE('',*,*,#460,.F.);
#170=ORIENTED_EDGE('',*,*,#467,.T.);
#171=ORIENTED_EDGE('',*,*,#448,.T.);
#172=ORIENTED_EDGE('',*,*,#468,.T.);
#173=ORIENTED_EDGE('',*,*,#469,.T.);
#174=ORIENTED_EDGE('',*,*,#470,.T.);
#175=ORIENTED_EDGE('',*,*,#471,.F.);
#176=ORIENTED_EDGE('',*,*,#472,.T.);
#177=ORIENTED_EDGE('',*,*,#473,.T.);
#178=ORIENTED_EDGE('',*,*,#474,.F.);
#179=ORIENTED_EDGE('',*,*,#475,.F.);
#180=ORIENTED_EDGE('',*,*,#476,.F.);
#181=ORIENTED_EDGE('',*,*,#447,.F.);
#182=ORIENTED_EDGE('',*,*,#477,.F.);
#183=ORIENTED_EDGE('',*,*,#461,.T.);
#184=ORIENTED_EDGE('',*,*,#478,.T.);
#185=ORIENTED_EDGE('',*,*,#479,.T.);
#186=ORIENTED_EDGE('',*,*,#480,.F.);
#187=ORIENTED_EDGE('',*,*,#467,.F.);
#188=ORIENTED_EDGE('',*,*,#462,.T.);
#189=ORIENTED_EDGE('',*,*,#477,.T.);
#190=ORIENTED_EDGE('',*,*,#449,.F.);
#191=ORIENTED_EDGE('',*,*,#463,.T.);
#192=ORIENTED_EDGE('',*,*,#481,.T.);
#193=ORIENTED_EDGE('',*,*,#472,.F.);
#194=ORIENTED_EDGE('',*,*,#482,.F.);
#195=ORIENTED_EDGE('',*,*,#483,.T.);
#196=ORIENTED_EDGE('',*,*,#470,.F.);
#197=ORIENTED_EDGE('',*,*,#484,.F.);
#198=ORIENTED_EDGE('',*,*,#474,.T.);
#199=ORIENTED_EDGE('',*,*,#485,.F.);
#200=ORIENTED_EDGE('',*,*,#475,.T.);
#201=ORIENTED_EDGE('',*,*,#484,.T.);
#202=ORIENTED_EDGE('',*,*,#469,.F.);
#203=ORIENTED_EDGE('',*,*,#481,.F.);
#204=ORIENTED_EDGE('',*,*,#471,.T.);
#205=ORIENTED_EDGE('',*,*,#483,.F.);
#206=ORIENTED_EDGE('',*,*,#473,.F.);
#207=ORIENTED_EDGE('',*,*,#464,.F.);
#208=ORIENTED_EDGE('',*,*,#482,.T.);
#209=ORIENTED_EDGE('',*,*,#480,.T.);
#210=ORIENTED_EDGE('',*,*,#486,.F.);
#211=ORIENTED_EDGE('',*,*,#487,.T.);
#212=ORIENTED_EDGE('',*,*,#488,.T.);
#213=ORIENTED_EDGE('',*,*,#489,.T.);
#214=ORIENTED_EDGE('',*,*,#490,.T.);
#215=ORIENTED_EDGE('',*,*,#491,.T.);
#216=ORIENTED_EDGE('',*,*,#492,.T.);
#217=ORIENTED_EDGE('',*,*,#493,.T.);
#218=ORIENTED_EDGE('',*,*,#494,.T.);
#219=ORIENTED_EDGE('',*,*,#495,.T.);
#220=ORIENTED_EDGE('',*,*,#496,.T.);
#221=ORIENTED_EDGE('',*,*,#497,.T.);
#222=ORIENTED_EDGE('',*,*,#498,.T.);
#223=ORIENTED_EDGE('',*,*,#499,.T.);
#224=ORIENTED_EDGE('',*,*,#500,.T.);
#225=ORIENTED_EDGE('',*,*,#501,.T.);
#226=ORIENTED_EDGE('',*,*,#486,.T.);
#227=ORIENTED_EDGE('',*,*,#479,.F.);
#228=ORIENTED_EDGE('',*,*,#502,.T.);
#229=ORIENTED_EDGE('',*,*,#503,.F.);
#230=ORIENTED_EDGE('',*,*,#504,.F.);
#231=ORIENTED_EDGE('',*,*,#505,.T.);
#232=ORIENTED_EDGE('',*,*,#506,.T.);
#233=ORIENTED_EDGE('',*,*,#465,.T.);
#234=ORIENTED_EDGE('',*,*,#450,.T.);
#235=ORIENTED_EDGE('',*,*,#466,.T.);
#236=ORIENTED_EDGE('',*,*,#506,.F.);
#237=ORIENTED_EDGE('',*,*,#507,.T.);
#238=ORIENTED_EDGE('',*,*,#507,.F.);
#239=ORIENTED_EDGE('',*,*,#505,.F.);
#240=ORIENTED_EDGE('',*,*,#508,.T.);
#241=ORIENTED_EDGE('',*,*,#451,.T.);
#242=ORIENTED_EDGE('',*,*,#509,.T.);
#243=ORIENTED_EDGE('',*,*,#453,.F.);
#244=ORIENTED_EDGE('',*,*,#510,.F.);
#245=ORIENTED_EDGE('',*,*,#503,.T.);
#246=ORIENTED_EDGE('',*,*,#508,.F.);
#247=ORIENTED_EDGE('',*,*,#504,.T.);
#248=ORIENTED_EDGE('',*,*,#510,.T.);
#249=ORIENTED_EDGE('',*,*,#452,.F.);
#250=ORIENTED_EDGE('',*,*,#478,.F.);
#251=ORIENTED_EDGE('',*,*,#454,.T.);
#252=ORIENTED_EDGE('',*,*,#509,.F.);
#253=ORIENTED_EDGE('',*,*,#502,.F.);
#254=ORIENTED_EDGE('',*,*,#457,.F.);
#255=ORIENTED_EDGE('',*,*,#511,.F.);
#256=ORIENTED_EDGE('',*,*,#512,.T.);
#257=ORIENTED_EDGE('',*,*,#513,.T.);
#258=ORIENTED_EDGE('',*,*,#456,.T.);
#259=ORIENTED_EDGE('',*,*,#514,.F.);
#260=ORIENTED_EDGE('',*,*,#515,.F.);
#261=ORIENTED_EDGE('',*,*,#511,.T.);
#262=ORIENTED_EDGE('',*,*,#459,.T.);
#263=ORIENTED_EDGE('',*,*,#516,.F.);
#264=ORIENTED_EDGE('',*,*,#517,.F.);
#265=ORIENTED_EDGE('',*,*,#514,.T.);
#266=ORIENTED_EDGE('',*,*,#458,.F.);
#267=ORIENTED_EDGE('',*,*,#513,.F.);
#268=ORIENTED_EDGE('',*,*,#518,.T.);
#269=ORIENTED_EDGE('',*,*,#516,.T.);
#270=ORIENTED_EDGE('',*,*,#519,.F.);
#271=ORIENTED_EDGE('',*,*,#520,.F.);
#272=ORIENTED_EDGE('',*,*,#521,.F.);
#273=ORIENTED_EDGE('',*,*,#522,.F.);
#274=ORIENTED_EDGE('',*,*,#523,.F.);
#275=ORIENTED_EDGE('',*,*,#524,.F.);
#276=ORIENTED_EDGE('',*,*,#525,.F.);
#277=ORIENTED_EDGE('',*,*,#526,.F.);
#278=ORIENTED_EDGE('',*,*,#527,.F.);
#279=ORIENTED_EDGE('',*,*,#528,.F.);
#280=ORIENTED_EDGE('',*,*,#529,.F.);
#281=ORIENTED_EDGE('',*,*,#530,.F.);
#282=ORIENTED_EDGE('',*,*,#531,.F.);
#283=ORIENTED_EDGE('',*,*,#532,.F.);
#284=ORIENTED_EDGE('',*,*,#533,.F.);
#285=ORIENTED_EDGE('',*,*,#512,.F.);
#286=ORIENTED_EDGE('',*,*,#515,.T.);
#287=ORIENTED_EDGE('',*,*,#517,.T.);
#288=ORIENTED_EDGE('',*,*,#518,.F.);
#289=ORIENTED_EDGE('',*,*,#437,.T.);
#290=ORIENTED_EDGE('',*,*,#476,.T.);
#291=ORIENTED_EDGE('',*,*,#534,.F.);
#292=ORIENTED_EDGE('',*,*,#535,.F.);
#293=ORIENTED_EDGE('',*,*,#535,.T.);
#294=ORIENTED_EDGE('',*,*,#536,.F.);
#295=ORIENTED_EDGE('',*,*,#537,.F.);
#296=ORIENTED_EDGE('',*,*,#438,.T.);
#297=ORIENTED_EDGE('',*,*,#538,.T.);
#298=ORIENTED_EDGE('',*,*,#539,.T.);
#299=ORIENTED_EDGE('',*,*,#540,.T.);
#300=ORIENTED_EDGE('',*,*,#541,.T.);
#301=ORIENTED_EDGE('',*,*,#542,.T.);
#302=ORIENTED_EDGE('',*,*,#543,.T.);
#303=ORIENTED_EDGE('',*,*,#544,.T.);
#304=ORIENTED_EDGE('',*,*,#545,.T.);
#305=ORIENTED_EDGE('',*,*,#546,.T.);
#306=ORIENTED_EDGE('',*,*,#547,.T.);
#307=ORIENTED_EDGE('',*,*,#548,.T.);
#308=ORIENTED_EDGE('',*,*,#549,.T.);
#309=ORIENTED_EDGE('',*,*,#550,.T.);
#310=ORIENTED_EDGE('',*,*,#551,.T.);
#311=ORIENTED_EDGE('',*,*,#552,.T.);
#312=ORIENTED_EDGE('',*,*,#534,.T.);
#313=ORIENTED_EDGE('',*,*,#485,.T.);
#314=ORIENTED_EDGE('',*,*,#553,.T.);
#315=ORIENTED_EDGE('',*,*,#554,.F.);
#316=ORIENTED_EDGE('',*,*,#555,.F.);
#317=ORIENTED_EDGE('',*,*,#536,.T.);
#318=ORIENTED_EDGE('',*,*,#556,.F.);
#319=ORIENTED_EDGE('',*,*,#440,.F.);
#320=ORIENTED_EDGE('',*,*,#557,.T.);
#321=ORIENTED_EDGE('',*,*,#554,.T.);
#322=ORIENTED_EDGE('',*,*,#439,.F.);
#323=ORIENTED_EDGE('',*,*,#537,.T.);
#324=ORIENTED_EDGE('',*,*,#555,.T.);
#325=ORIENTED_EDGE('',*,*,#557,.F.);
#326=ORIENTED_EDGE('',*,*,#468,.F.);
#327=ORIENTED_EDGE('',*,*,#441,.T.);
#328=ORIENTED_EDGE('',*,*,#556,.T.);
#329=ORIENTED_EDGE('',*,*,#553,.F.);
#330=ORIENTED_EDGE('',*,*,#444,.F.);
#331=ORIENTED_EDGE('',*,*,#558,.F.);
#332=ORIENTED_EDGE('',*,*,#559,.T.);
#333=ORIENTED_EDGE('',*,*,#560,.T.);
#334=ORIENTED_EDGE('',*,*,#443,.T.);
#335=ORIENTED_EDGE('',*,*,#561,.F.);
#336=ORIENTED_EDGE('',*,*,#562,.F.);
#337=ORIENTED_EDGE('',*,*,#558,.T.);
#338=ORIENTED_EDGE('',*,*,#446,.T.);
#339=ORIENTED_EDGE('',*,*,#563,.F.);
#340=ORIENTED_EDGE('',*,*,#564,.F.);
#341=ORIENTED_EDGE('',*,*,#561,.T.);
#342=ORIENTED_EDGE('',*,*,#445,.F.);
#343=ORIENTED_EDGE('',*,*,#560,.F.);
#344=ORIENTED_EDGE('',*,*,#565,.T.);
#345=ORIENTED_EDGE('',*,*,#563,.T.);
#346=ORIENTED_EDGE('',*,*,#566,.F.);
#347=ORIENTED_EDGE('',*,*,#567,.F.);
#348=ORIENTED_EDGE('',*,*,#568,.F.);
#349=ORIENTED_EDGE('',*,*,#569,.F.);
#350=ORIENTED_EDGE('',*,*,#570,.F.);
#351=ORIENTED_EDGE('',*,*,#571,.F.);
#352=ORIENTED_EDGE('',*,*,#572,.F.);
#353=ORIENTED_EDGE('',*,*,#573,.F.);
#354=ORIENTED_EDGE('',*,*,#574,.F.);
#355=ORIENTED_EDGE('',*,*,#575,.F.);
#356=ORIENTED_EDGE('',*,*,#576,.F.);
#357=ORIENTED_EDGE('',*,*,#577,.F.);
#358=ORIENTED_EDGE('',*,*,#578,.F.);
#359=ORIENTED_EDGE('',*,*,#579,.F.);
#360=ORIENTED_EDGE('',*,*,#580,.F.);
#361=ORIENTED_EDGE('',*,*,#559,.F.);
#362=ORIENTED_EDGE('',*,*,#562,.T.);
#363=ORIENTED_EDGE('',*,*,#564,.T.);
#364=ORIENTED_EDGE('',*,*,#565,.F.);
#365=ORIENTED_EDGE('',*,*,#533,.T.);
#366=ORIENTED_EDGE('',*,*,#501,.F.);
#367=ORIENTED_EDGE('',*,*,#532,.T.);
#368=ORIENTED_EDGE('',*,*,#500,.F.);
#369=ORIENTED_EDGE('',*,*,#531,.T.);
#370=ORIENTED_EDGE('',*,*,#499,.F.);
#371=ORIENTED_EDGE('',*,*,#530,.T.);
#372=ORIENTED_EDGE('',*,*,#498,.F.);
#373=ORIENTED_EDGE('',*,*,#529,.T.);
#374=ORIENTED_EDGE('',*,*,#497,.F.);
#375=ORIENTED_EDGE('',*,*,#528,.T.);
#376=ORIENTED_EDGE('',*,*,#496,.F.);
#377=ORIENTED_EDGE('',*,*,#527,.T.);
#378=ORIENTED_EDGE('',*,*,#495,.F.);
#379=ORIENTED_EDGE('',*,*,#526,.T.);
#380=ORIENTED_EDGE('',*,*,#494,.F.);
#381=ORIENTED_EDGE('',*,*,#525,.T.);
#382=ORIENTED_EDGE('',*,*,#493,.F.);
#383=ORIENTED_EDGE('',*,*,#524,.T.);
#384=ORIENTED_EDGE('',*,*,#492,.F.);
#385=ORIENTED_EDGE('',*,*,#523,.T.);
#386=ORIENTED_EDGE('',*,*,#491,.F.);
#387=ORIENTED_EDGE('',*,*,#522,.T.);
#388=ORIENTED_EDGE('',*,*,#490,.F.);
#389=ORIENTED_EDGE('',*,*,#521,.T.);
#390=ORIENTED_EDGE('',*,*,#489,.F.);
#391=ORIENTED_EDGE('',*,*,#520,.T.);
#392=ORIENTED_EDGE('',*,*,#488,.F.);
#393=ORIENTED_EDGE('',*,*,#519,.T.);
#394=ORIENTED_EDGE('',*,*,#487,.F.);
#395=ORIENTED_EDGE('',*,*,#580,.T.);
#396=ORIENTED_EDGE('',*,*,#552,.F.);
#397=ORIENTED_EDGE('',*,*,#579,.T.);
#398=ORIENTED_EDGE('',*,*,#551,.F.);
#399=ORIENTED_EDGE('',*,*,#578,.T.);
#400=ORIENTED_EDGE('',*,*,#550,.F.);
#401=ORIENTED_EDGE('',*,*,#577,.T.);
#402=ORIENTED_EDGE('',*,*,#549,.F.);
#403=ORIENTED_EDGE('',*,*,#576,.T.);
#404=ORIENTED_EDGE('',*,*,#548,.F.);
#405=ORIENTED_EDGE('',*,*,#575,.T.);
#406=ORIENTED_EDGE('',*,*,#547,.F.);
#407=ORIENTED_EDGE('',*,*,#574,.T.);
#408=ORIENTED_EDGE('',*,*,#546,.F.);
#409=ORIENTED_EDGE('',*,*,#573,.T.);
#410=ORIENTED_EDGE('',*,*,#545,.F.);
#411=ORIENTED_EDGE('',*,*,#572,.T.);
#412=ORIENTED_EDGE('',*,*,#544,.F.);
#413=ORIENTED_EDGE('',*,*,#571,.T.);
#414=ORIENTED_EDGE('',*,*,#543,.F.);
#415=ORIENTED_EDGE('',*,*,#570,.T.);
#416=ORIENTED_EDGE('',*,*,#542,.F.);
#417=ORIENTED_EDGE('',*,*,#569,.T.);
#418=ORIENTED_EDGE('',*,*,#541,.F.);
#419=ORIENTED_EDGE('',*,*,#568,.T.);
#420=ORIENTED_EDGE('',*,*,#540,.F.);
#421=ORIENTED_EDGE('',*,*,#567,.T.);
#422=ORIENTED_EDGE('',*,*,#539,.F.);
#423=ORIENTED_EDGE('',*,*,#566,.T.);
#424=ORIENTED_EDGE('',*,*,#538,.F.);
#425=EDGE_CURVE('',#581,#582,#703,.T.);
#426=EDGE_CURVE('',#583,#581,#704,.T.);
#427=EDGE_CURVE('',#583,#584,#705,.T.);
#428=EDGE_CURVE('',#584,#582,#706,.T.);
#429=EDGE_CURVE('',#581,#585,#707,.T.);
#430=EDGE_CURVE('',#586,#585,#708,.T.);
#431=EDGE_CURVE('',#583,#586,#709,.T.);
#432=EDGE_CURVE('',#585,#587,#710,.T.);
#433=EDGE_CURVE('',#588,#587,#711,.T.);
#434=EDGE_CURVE('',#586,#588,#712,.T.);
#435=EDGE_CURVE('',#582,#587,#713,.T.);
#436=EDGE_CURVE('',#584,#588,#714,.T.);
#437=EDGE_CURVE('',#589,#590,#715,.T.);
#438=EDGE_CURVE('',#591,#589,#716,.T.);
#439=EDGE_CURVE('',#591,#592,#717,.T.);
#440=EDGE_CURVE('',#592,#593,#718,.T.);
#441=EDGE_CURVE('',#594,#593,#719,.T.);
#442=EDGE_CURVE('',#590,#594,#720,.T.);
#443=EDGE_CURVE('',#595,#596,#721,.T.);
#444=EDGE_CURVE('',#595,#597,#722,.T.);
#445=EDGE_CURVE('',#597,#598,#723,.T.);
#446=EDGE_CURVE('',#596,#598,#724,.T.);
#447=EDGE_CURVE('',#599,#590,#725,.T.);
#448=EDGE_CURVE('',#600,#594,#726,.T.);
#449=EDGE_CURVE('',#600,#599,#727,.T.);
#450=EDGE_CURVE('',#601,#602,#728,.T.);
#451=EDGE_CURVE('',#603,#601,#729,.T.);
#452=EDGE_CURVE('',#603,#604,#730,.T.);
#453=EDGE_CURVE('',#604,#605,#731,.T.);
#454=EDGE_CURVE('',#606,#605,#732,.T.);
#455=EDGE_CURVE('',#602,#606,#733,.T.);
#456=EDGE_CURVE('',#607,#608,#734,.T.);
#457=EDGE_CURVE('',#607,#609,#735,.T.);
#458=EDGE_CURVE('',#609,#610,#736,.T.);
#459=EDGE_CURVE('',#608,#610,#737,.T.);
#460=EDGE_CURVE('',#611,#602,#738,.T.);
#461=EDGE_CURVE('',#612,#606,#739,.T.);
#462=EDGE_CURVE('',#611,#612,#740,.T.);
#463=EDGE_CURVE('',#613,#614,#741,.T.);
#464=EDGE_CURVE('',#613,#615,#742,.T.);
#465=EDGE_CURVE('',#616,#615,#743,.T.);
#466=EDGE_CURVE('',#602,#616,#744,.T.);
#467=EDGE_CURVE('',#611,#600,#745,.T.);
#468=EDGE_CURVE('',#594,#617,#746,.T.);
#469=EDGE_CURVE('',#617,#618,#747,.T.);
#470=EDGE_CURVE('',#618,#619,#748,.T.);
#471=EDGE_CURVE('',#614,#619,#749,.T.);
#472=EDGE_CURVE('',#620,#621,#750,.T.);
#473=EDGE_CURVE('',#621,#622,#751,.T.);
#474=EDGE_CURVE('',#623,#622,#752,.T.);
#475=EDGE_CURVE('',#624,#623,#753,.T.);
#476=EDGE_CURVE('',#590,#624,#754,.T.);
#477=EDGE_CURVE('',#612,#599,#755,.T.);
#478=EDGE_CURVE('',#606,#625,#756,.T.);
#479=EDGE_CURVE('',#625,#626,#757,.T.);
#480=EDGE_CURVE('',#620,#626,#758,.T.);
#481=EDGE_CURVE('',#614,#621,#759,.T.);
#482=EDGE_CURVE('',#613,#620,#760,.T.);
#483=EDGE_CURVE('',#622,#619,#761,.T.);
#484=EDGE_CURVE('',#623,#618,#762,.T.);
#485=EDGE_CURVE('',#624,#617,#763,.T.);
#486=EDGE_CURVE('',#615,#626,#764,.T.);
#487=EDGE_CURVE('',#627,#627,#40,.T.);
#488=EDGE_CURVE('',#628,#628,#41,.T.);
#489=EDGE_CURVE('',#629,#629,#42,.T.);
#490=EDGE_CURVE('',#630,#630,#43,.T.);
#491=EDGE_CURVE('',#631,#631,#44,.T.);
#492=EDGE_CURVE('',#632,#632,#45,.T.);
#493=EDGE_CURVE('',#633,#633,#46,.T.);
#494=EDGE_CURVE('',#634,#634,#47,.T.);
#495=EDGE_CURVE('',#635,#635,#48,.T.);
#496=EDGE_CURVE('',#636,#636,#49,.T.);
#497=EDGE_CURVE('',#637,#637,#50,.T.);
#498=EDGE_CURVE('',#638,#638,#51,.T.);
#499=EDGE_CURVE('',#639,#639,#52,.T.);
#500=EDGE_CURVE('',#640,#640,#53,.T.);
#501=EDGE_CURVE('',#641,#641,#54,.T.);
#502=EDGE_CURVE('',#625,#642,#765,.T.);
#503=EDGE_CURVE('',#643,#642,#766,.T.);
#504=EDGE_CURVE('',#644,#643,#767,.T.);
#505=EDGE_CURVE('',#644,#645,#768,.T.);
#506=EDGE_CURVE('',#645,#616,#769,.T.);
#507=EDGE_CURVE('',#645,#601,#770,.T.);
#508=EDGE_CURVE('',#644,#603,#771,.T.);
#509=EDGE_CURVE('',#642,#605,#772,.T.);
#510=EDGE_CURVE('',#643,#604,#773,.T.);
#511=EDGE_CURVE('',#646,#607,#774,.T.);
#512=EDGE_CURVE('',#646,#647,#775,.T.);
#513=EDGE_CURVE('',#647,#609,#776,.T.);
#514=EDGE_CURVE('',#648,#608,#777,.T.);
#515=EDGE_CURVE('',#646,#648,#778,.T.);
#516=EDGE_CURVE('',#649,#610,#779,.T.);
#517=EDGE_CURVE('',#648,#649,#780,.T.);
#518=EDGE_CURVE('',#647,#649,#781,.T.);
#519=EDGE_CURVE('',#650,#650,#55,.T.);
#520=EDGE_CURVE('',#651,#651,#56,.T.);
#521=EDGE_CURVE('',#652,#652,#57,.T.);
#522=EDGE_CURVE('',#653,#653,#58,.T.);
#523=EDGE_CURVE('',#654,#654,#59,.T.);
#524=EDGE_CURVE('',#655,#655,#60,.T.);
#525=EDGE_CURVE('',#656,#656,#61,.T.);
#526=EDGE_CURVE('',#657,#657,#62,.T.);
#527=EDGE_CURVE('',#658,#658,#63,.T.);
#528=EDGE_CURVE('',#659,#659,#64,.T.);
#529=EDGE_CURVE('',#660,#660,#65,.T.);
#530=EDGE_CURVE('',#661,#661,#66,.T.);
#531=EDGE_CURVE('',#662,#662,#67,.T.);
#532=EDGE_CURVE('',#663,#663,#68,.T.);
#533=EDGE_CURVE('',#664,#664,#69,.T.);
#534=EDGE_CURVE('',#665,#624,#782,.T.);
#535=EDGE_CURVE('',#589,#665,#783,.T.);
#536=EDGE_CURVE('',#666,#665,#784,.T.);
#537=EDGE_CURVE('',#591,#666,#785,.T.);
#538=EDGE_CURVE('',#667,#667,#70,.T.);
#539=EDGE_CURVE('',#668,#668,#71,.T.);
#540=EDGE_CURVE('',#669,#669,#72,.T.);
#541=EDGE_CURVE('',#670,#670,#73,.T.);
#542=EDGE_CURVE('',#671,#671,#74,.T.);
#543=EDGE_CURVE('',#672,#672,#75,.T.);
#544=EDGE_CURVE('',#673,#673,#76,.T.);
#545=EDGE_CURVE('',#674,#674,#77,.T.);
#546=EDGE_CURVE('',#675,#675,#78,.T.);
#547=EDGE_CURVE('',#676,#676,#79,.T.);
#548=EDGE_CURVE('',#677,#677,#80,.T.);
#549=EDGE_CURVE('',#678,#678,#81,.T.);
#550=EDGE_CURVE('',#679,#679,#82,.T.);
#551=EDGE_CURVE('',#680,#680,#83,.T.);
#552=EDGE_CURVE('',#681,#681,#84,.T.);
#553=EDGE_CURVE('',#617,#682,#786,.T.);
#554=EDGE_CURVE('',#683,#682,#787,.T.);
#555=EDGE_CURVE('',#666,#683,#788,.T.);
#556=EDGE_CURVE('',#593,#682,#789,.T.);
#557=EDGE_CURVE('',#592,#683,#790,.T.);
#558=EDGE_CURVE('',#684,#595,#791,.T.);
#559=EDGE_CURVE('',#684,#685,#792,.T.);
#560=EDGE_CURVE('',#685,#597,#793,.T.);
#561=EDGE_CURVE('',#686,#596,#794,.T.);
#562=EDGE_CURVE('',#684,#686,#795,.T.);
#563=EDGE_CURVE('',#687,#598,#796,.T.);
#564=EDGE_CURVE('',#686,#687,#797,.T.);
#565=EDGE_CURVE('',#685,#687,#798,.T.);
#566=EDGE_CURVE('',#688,#688,#85,.T.);
#567=EDGE_CURVE('',#689,#689,#86,.T.);
#568=EDGE_CURVE('',#690,#690,#87,.T.);
#569=EDGE_CURVE('',#691,#691,#88,.T.);
#570=EDGE_CURVE('',#692,#692,#89,.T.);
#571=EDGE_CURVE('',#693,#693,#90,.T.);
#572=EDGE_CURVE('',#694,#694,#91,.T.);
#573=EDGE_CURVE('',#695,#695,#92,.T.);
#574=EDGE_CURVE('',#696,#696,#93,.T.);
#575=EDGE_CURVE('',#697,#697,#94,.T.);
#576=EDGE_CURVE('',#698,#698,#95,.T.);
#577=EDGE_CURVE('',#699,#699,#96,.T.);
#578=EDGE_CURVE('',#700,#700,#97,.T.);
#579=EDGE_CURVE('',#701,#701,#98,.T.);
#580=EDGE_CURVE('',#702,#702,#99,.T.);
#581=VERTEX_POINT('',#1852);
#582=VERTEX_POINT('',#1853);
#583=VERTEX_POINT('',#1855);
#584=VERTEX_POINT('',#1857);
#585=VERTEX_POINT('',#1861);
#586=VERTEX_POINT('',#1863);
#587=VERTEX_POINT('',#1867);
#588=VERTEX_POINT('',#1869);
#589=VERTEX_POINT('',#1879);
#590=VERTEX_POINT('',#1880);
#591=VERTEX_POINT('',#1882);
#592=VERTEX_POINT('',#1884);
#593=VERTEX_POINT('',#1886);
#594=VERTEX_POINT('',#1888);
#595=VERTEX_POINT('',#1891);
#596=VERTEX_POINT('',#1892);
#597=VERTEX_POINT('',#1894);
#598=VERTEX_POINT('',#1896);
#599=VERTEX_POINT('',#1900);
#600=VERTEX_POINT('',#1902);
#601=VERTEX_POINT('',#1906);
#602=VERTEX_POINT('',#1907);
#603=VERTEX_POINT('',#1909);
#604=VERTEX_POINT('',#1911);
#605=VERTEX_POINT('',#1913);
#606=VERTEX_POINT('',#1915);
#607=VERTEX_POINT('',#1918);
#608=VERTEX_POINT('',#1919);
#609=VERTEX_POINT('',#1921);
#610=VERTEX_POINT('',#1923);
#611=VERTEX_POINT('',#1927);
#612=VERTEX_POINT('',#1929);
#613=VERTEX_POINT('',#1933);
#614=VERTEX_POINT('',#1934);
#615=VERTEX_POINT('',#1936);
#616=VERTEX_POINT('',#1938);
#617=VERTEX_POINT('',#1942);
#618=VERTEX_POINT('',#1944);
#619=VERTEX_POINT('',#1946);
#620=VERTEX_POINT('',#1950);
#621=VERTEX_POINT('',#1951);
#622=VERTEX_POINT('',#1953);
#623=VERTEX_POINT('',#1955);
#624=VERTEX_POINT('',#1957);
#625=VERTEX_POINT('',#1961);
#626=VERTEX_POINT('',#1963);
#627=VERTEX_POINT('',#1979);
#628=VERTEX_POINT('',#1981);
#629=VERTEX_POINT('',#1983);
#630=VERTEX_POINT('',#1985);
#631=VERTEX_POINT('',#1987);
#632=VERTEX_POINT('',#1989);
#633=VERTEX_POINT('',#1991);
#634=VERTEX_POINT('',#1993);
#635=VERTEX_POINT('',#1995);
#636=VERTEX_POINT('',#1997);
#637=VERTEX_POINT('',#1999);
#638=VERTEX_POINT('',#2001);
#639=VERTEX_POINT('',#2003);
#640=VERTEX_POINT('',#2005);
#641=VERTEX_POINT('',#2007);
#642=VERTEX_POINT('',#2009);
#643=VERTEX_POINT('',#2011);
#644=VERTEX_POINT('',#2013);
#645=VERTEX_POINT('',#2015);
#646=VERTEX_POINT('',#2028);
#647=VERTEX_POINT('',#2030);
#648=VERTEX_POINT('',#2034);
#649=VERTEX_POINT('',#2038);
#650=VERTEX_POINT('',#2044);
#651=VERTEX_POINT('',#2046);
#652=VERTEX_POINT('',#2048);
#653=VERTEX_POINT('',#2050);
#654=VERTEX_POINT('',#2052);
#655=VERTEX_POINT('',#2054);
#656=VERTEX_POINT('',#2056);
#657=VERTEX_POINT('',#2058);
#658=VERTEX_POINT('',#2060);
#659=VERTEX_POINT('',#2062);
#660=VERTEX_POINT('',#2064);
#661=VERTEX_POINT('',#2066);
#662=VERTEX_POINT('',#2068);
#663=VERTEX_POINT('',#2070);
#664=VERTEX_POINT('',#2072);
#665=VERTEX_POINT('',#2075);
#666=VERTEX_POINT('',#2079);
#667=VERTEX_POINT('',#2083);
#668=VERTEX_POINT('',#2085);
#669=VERTEX_POINT('',#2087);
#670=VERTEX_POINT('',#2089);
#671=VERTEX_POINT('',#2091);
#672=VERTEX_POINT('',#2093);
#673=VERTEX_POINT('',#2095);
#674=VERTEX_POINT('',#2097);
#675=VERTEX_POINT('',#2099);
#676=VERTEX_POINT('',#2101);
#677=VERTEX_POINT('',#2103);
#678=VERTEX_POINT('',#2105);
#679=VERTEX_POINT('',#2107);
#680=VERTEX_POINT('',#2109);
#681=VERTEX_POINT('',#2111);
#682=VERTEX_POINT('',#2113);
#683=VERTEX_POINT('',#2115);
#684=VERTEX_POINT('',#2124);
#685=VERTEX_POINT('',#2126);
#686=VERTEX_POINT('',#2130);
#687=VERTEX_POINT('',#2134);
#688=VERTEX_POINT('',#2140);
#689=VERTEX_POINT('',#2142);
#690=VERTEX_POINT('',#2144);
#691=VERTEX_POINT('',#2146);
#692=VERTEX_POINT('',#2148);
#693=VERTEX_POINT('',#2150);
#694=VERTEX_POINT('',#2152);
#695=VERTEX_POINT('',#2154);
#696=VERTEX_POINT('',#2156);
#697=VERTEX_POINT('',#2158);
#698=VERTEX_POINT('',#2160);
#699=VERTEX_POINT('',#2162);
#700=VERTEX_POINT('',#2164);
#701=VERTEX_POINT('',#2166);
#702=VERTEX_POINT('',#2168);
#703=LINE('',#1851,#799);
#704=LINE('',#1854,#800);
#705=LINE('',#1856,#801);
#706=LINE('',#1858,#802);
#707=LINE('',#1860,#803);
#708=LINE('',#1862,#804);
#709=LINE('',#1864,#805);
#710=LINE('',#1866,#806);
#711=LINE('',#1868,#807);
#712=LINE('',#1870,#808);
#713=LINE('',#1872,#809);
#714=LINE('',#1873,#810);
#715=LINE('',#1878,#811);
#716=LINE('',#1881,#812);
#717=LINE('',#1883,#813);
#718=LINE('',#1885,#814);
#719=LINE('',#1887,#815);
#720=LINE('',#1889,#816);
#721=LINE('',#1890,#817);
#722=LINE('',#1893,#818);
#723=LINE('',#1895,#819);
#724=LINE('',#1897,#820);
#725=LINE('',#1899,#821);
#726=LINE('',#1901,#822);
#727=LINE('',#1903,#823);
#728=LINE('',#1905,#824);
#729=LINE('',#1908,#825);
#730=LINE('',#1910,#826);
#731=LINE('',#1912,#827);
#732=LINE('',#1914,#828);
#733=LINE('',#1916,#829);
#734=LINE('',#1917,#830);
#735=LINE('',#1920,#831);
#736=LINE('',#1922,#832);
#737=LINE('',#1924,#833);
#738=LINE('',#1926,#834);
#739=LINE('',#1928,#835);
#740=LINE('',#1930,#836);
#741=LINE('',#1932,#837);
#742=LINE('',#1935,#838);
#743=LINE('',#1937,#839);
#744=LINE('',#1939,#840);
#745=LINE('',#1940,#841);
#746=LINE('',#1941,#842);
#747=LINE('',#1943,#843);
#748=LINE('',#1945,#844);
#749=LINE('',#1947,#845);
#750=LINE('',#1949,#846);
#751=LINE('',#1952,#847);
#752=LINE('',#1954,#848);
#753=LINE('',#1956,#849);
#754=LINE('',#1958,#850);
#755=LINE('',#1959,#851);
#756=LINE('',#1960,#852);
#757=LINE('',#1962,#853);
#758=LINE('',#1964,#854);
#759=LINE('',#1967,#855);
#760=LINE('',#1968,#856);
#761=LINE('',#1970,#857);
#762=LINE('',#1971,#858);
#763=LINE('',#1973,#859);
#764=LINE('',#1976,#860);
#765=LINE('',#2008,#861);
#766=LINE('',#2010,#862);
#767=LINE('',#2012,#863);
#768=LINE('',#2014,#864);
#769=LINE('',#2016,#865);
#770=LINE('',#2018,#866);
#771=LINE('',#2020,#867);
#772=LINE('',#2022,#868);
#773=LINE('',#2023,#869);
#774=LINE('',#2027,#870);
#775=LINE('',#2029,#871);
#776=LINE('',#2031,#872);
#777=LINE('',#2033,#873);
#778=LINE('',#2035,#874);
#779=LINE('',#2037,#875);
#780=LINE('',#2039,#876);
#781=LINE('',#2041,#877);
#782=LINE('',#2074,#878);
#783=LINE('',#2076,#879);
#784=LINE('',#2078,#880);
#785=LINE('',#2080,#881);
#786=LINE('',#2112,#882);
#787=LINE('',#2114,#883);
#788=LINE('',#2116,#884);
#789=LINE('',#2118,#885);
#790=LINE('',#2119,#886);
#791=LINE('',#2123,#887);
#792=LINE('',#2125,#888);
#793=LINE('',#2127,#889);
#794=LINE('',#2129,#890);
#795=LINE('',#2131,#891);
#796=LINE('',#2133,#892);
#797=LINE('',#2135,#893);
#798=LINE('',#2137,#894);
#799=VECTOR('',#1491,1.);
#800=VECTOR('',#1492,1.);
#801=VECTOR('',#1493,1.);
#802=VECTOR('',#1494,1.);
#803=VECTOR('',#1497,1.);
#804=VECTOR('',#1498,1.);
#805=VECTOR('',#1499,1.);
#806=VECTOR('',#1502,1.);
#807=VECTOR('',#1503,1.);
#808=VECTOR('',#1504,1.);
#809=VECTOR('',#1507,1.);
#810=VECTOR('',#1508,1.);
#811=VECTOR('',#1517,1.);
#812=VECTOR('',#1518,1.);
#813=VECTOR('',#1519,1.);
#814=VECTOR('',#1520,1.);
#815=VECTOR('',#1521,1.);
#816=VECTOR('',#1522,1.);
#817=VECTOR('',#1523,1.);
#818=VECTOR('',#1524,1.);
#819=VECTOR('',#1525,1.);
#820=VECTOR('',#1526,1.);
#821=VECTOR('',#1529,1.);
#822=VECTOR('',#1530,1.);
#823=VECTOR('',#1531,1.);
#824=VECTOR('',#1534,1.);
#825=VECTOR('',#1535,1.);
#826=VECTOR('',#1536,1.);
#827=VECTOR('',#1537,1.);
#828=VECTOR('',#1538,1.);
#829=VECTOR('',#1539,1.);
#830=VECTOR('',#1540,1.);
#831=VECTOR('',#1541,1.);
#832=VECTOR('',#1542,1.);
#833=VECTOR('',#1543,1.);
#834=VECTOR('',#1546,1.);
#835=VECTOR('',#1547,1.);
#836=VECTOR('',#1548,1.);
#837=VECTOR('',#1551,1.);
#838=VECTOR('',#1552,1.);
#839=VECTOR('',#1553,1.);
#840=VECTOR('',#1554,1.);
#841=VECTOR('',#1555,1.);
#842=VECTOR('',#1556,1.);
#843=VECTOR('',#1557,1.);
#844=VECTOR('',#1558,1.);
#845=VECTOR('',#1559,1.);
#846=VECTOR('',#1562,1.);
#847=VECTOR('',#1563,1.);
#848=VECTOR('',#1564,1.);
#849=VECTOR('',#1565,1.);
#850=VECTOR('',#1566,1.);
#851=VECTOR('',#1567,1.);
#852=VECTOR('',#1568,1.);
#853=VECTOR('',#1569,1.);
#854=VECTOR('',#1570,1.);
#855=VECTOR('',#1575,1.);
#856=VECTOR('',#1576,1.);
#857=VECTOR('',#1579,1.);
#858=VECTOR('',#1580,1.);
#859=VECTOR('',#1583,1.);
#860=VECTOR('',#1588,1.);
#861=VECTOR('',#1621,1.);
#862=VECTOR('',#1622,1.);
#863=VECTOR('',#1623,1.);
#864=VECTOR('',#1624,1.);
#865=VECTOR('',#1625,1.);
#866=VECTOR('',#1628,1.);
#867=VECTOR('',#1631,1.);
#868=VECTOR('',#1634,1.);
#869=VECTOR('',#1635,1.);
#870=VECTOR('',#1642,1.);
#871=VECTOR('',#1643,1.);
#872=VECTOR('',#1644,1.);
#873=VECTOR('',#1647,1.);
#874=VECTOR('',#1648,1.);
#875=VECTOR('',#1651,1.);
#876=VECTOR('',#1652,1.);
#877=VECTOR('',#1655,1.);
#878=VECTOR('',#1690,1.);
#879=VECTOR('',#1691,1.);
#880=VECTOR('',#1694,1.);
#881=VECTOR('',#1695,1.);
#882=VECTOR('',#1728,1.);
#883=VECTOR('',#1729,1.);
#884=VECTOR('',#1730,1.);
#885=VECTOR('',#1733,1.);
#886=VECTOR('',#1734,1.);
#887=VECTOR('',#1741,1.);
#888=VECTOR('',#1742,1.);
#889=VECTOR('',#1743,1.);
#890=VECTOR('',#1746,1.);
#891=VECTOR('',#1747,1.);
#892=VECTOR('',#1750,1.);
#893=VECTOR('',#1751,1.);
#894=VECTOR('',#1754,1.);
#895=EDGE_LOOP('',(#113,#114,#115,#116));
#896=EDGE_LOOP('',(#117,#118,#119,#120));
#897=EDGE_LOOP('',(#121,#122,#123,#124));
#898=EDGE_LOOP('',(#125,#126,#127,#128));
#899=EDGE_LOOP('',(#129,#130,#131,#132));
#900=EDGE_LOOP('',(#133,#134,#135,#136));
#901=EDGE_LOOP('',(#137,#138,#139,#140,#141,#142));
#902=EDGE_LOOP('',(#143,#144,#145,#146));
#903=EDGE_LOOP('',(#147,#148,#149,#150));
#904=EDGE_LOOP('',(#151,#152,#153,#154,#155,#156));
#905=EDGE_LOOP('',(#157,#158,#159,#160));
#906=EDGE_LOOP('',(#161,#162,#163,#164));
#907=EDGE_LOOP('',(#165,#166,#167,#168,#169,#170,#171,#172,#173,#174,#175));
#908=EDGE_LOOP('',(#176,#177,#178,#179,#180,#181,#182,#183,#184,#185,#186));
#909=EDGE_LOOP('',(#187,#188,#189,#190));
#910=EDGE_LOOP('',(#191,#192,#193,#194));
#911=EDGE_LOOP('',(#195,#196,#197,#198));
#912=EDGE_LOOP('',(#199,#200,#201,#202));
#913=EDGE_LOOP('',(#203,#204,#205,#206));
#914=EDGE_LOOP('',(#207,#208,#209,#210));
#915=EDGE_LOOP('',(#211));
#916=EDGE_LOOP('',(#212));
#917=EDGE_LOOP('',(#213));
#918=EDGE_LOOP('',(#214));
#919=EDGE_LOOP('',(#215));
#920=EDGE_LOOP('',(#216));
#921=EDGE_LOOP('',(#217));
#922=EDGE_LOOP('',(#218));
#923=EDGE_LOOP('',(#219));
#924=EDGE_LOOP('',(#220));
#925=EDGE_LOOP('',(#221));
#926=EDGE_LOOP('',(#222));
#927=EDGE_LOOP('',(#223));
#928=EDGE_LOOP('',(#224));
#929=EDGE_LOOP('',(#225));
#930=EDGE_LOOP('',(#226,#227,#228,#229,#230,#231,#232,#233));
#931=EDGE_LOOP('',(#234,#235,#236,#237));
#932=EDGE_LOOP('',(#238,#239,#240,#241));
#933=EDGE_LOOP('',(#242,#243,#244,#245));
#934=EDGE_LOOP('',(#246,#247,#248,#249));
#935=EDGE_LOOP('',(#250,#251,#252,#253));
#936=EDGE_LOOP('',(#254,#255,#256,#257));
#937=EDGE_LOOP('',(#258,#259,#260,#261));
#938=EDGE_LOOP('',(#262,#263,#264,#265));
#939=EDGE_LOOP('',(#266,#267,#268,#269));
#940=EDGE_LOOP('',(#270));
#941=EDGE_LOOP('',(#271));
#942=EDGE_LOOP('',(#272));
#943=EDGE_LOOP('',(#273));
#944=EDGE_LOOP('',(#274));
#945=EDGE_LOOP('',(#275));
#946=EDGE_LOOP('',(#276));
#947=EDGE_LOOP('',(#277));
#948=EDGE_LOOP('',(#278));
#949=EDGE_LOOP('',(#279));
#950=EDGE_LOOP('',(#280));
#951=EDGE_LOOP('',(#281));
#952=EDGE_LOOP('',(#282));
#953=EDGE_LOOP('',(#283));
#954=EDGE_LOOP('',(#284));
#955=EDGE_LOOP('',(#285,#286,#287,#288));
#956=EDGE_LOOP('',(#289,#290,#291,#292));
#957=EDGE_LOOP('',(#293,#294,#295,#296));
#958=EDGE_LOOP('',(#297));
#959=EDGE_LOOP('',(#298));
#960=EDGE_LOOP('',(#299));
#961=EDGE_LOOP('',(#300));
#962=EDGE_LOOP('',(#301));
#963=EDGE_LOOP('',(#302));
#964=EDGE_LOOP('',(#303));
#965=EDGE_LOOP('',(#304));
#966=EDGE_LOOP('',(#305));
#967=EDGE_LOOP('',(#306));
#968=EDGE_LOOP('',(#307));
#969=EDGE_LOOP('',(#308));
#970=EDGE_LOOP('',(#309));
#971=EDGE_LOOP('',(#310));
#972=EDGE_LOOP('',(#311));
#973=EDGE_LOOP('',(#312,#313,#314,#315,#316,#317));
#974=EDGE_LOOP('',(#318,#319,#320,#321));
#975=EDGE_LOOP('',(#322,#323,#324,#325));
#976=EDGE_LOOP('',(#326,#327,#328,#329));
#977=EDGE_LOOP('',(#330,#331,#332,#333));
#978=EDGE_LOOP('',(#334,#335,#336,#337));
#979=EDGE_LOOP('',(#338,#339,#340,#341));
#980=EDGE_LOOP('',(#342,#343,#344,#345));
#981=EDGE_LOOP('',(#346));
#982=EDGE_LOOP('',(#347));
#983=EDGE_LOOP('',(#348));
#984=EDGE_LOOP('',(#349));
#985=EDGE_LOOP('',(#350));
#986=EDGE_LOOP('',(#351));
#987=EDGE_LOOP('',(#352));
#988=EDGE_LOOP('',(#353));
#989=EDGE_LOOP('',(#354));
#990=EDGE_LOOP('',(#355));
#991=EDGE_LOOP('',(#356));
#992=EDGE_LOOP('',(#357));
#993=EDGE_LOOP('',(#358));
#994=EDGE_LOOP('',(#359));
#995=EDGE_LOOP('',(#360));
#996=EDGE_LOOP('',(#361,#362,#363,#364));
#997=EDGE_LOOP('',(#365));
#998=EDGE_LOOP('',(#366));
#999=EDGE_LOOP('',(#367));
#1000=EDGE_LOOP('',(#368));
#1001=EDGE_LOOP('',(#369));
#1002=EDGE_LOOP('',(#370));
#1003=EDGE_LOOP('',(#371));
#1004=EDGE_LOOP('',(#372));
#1005=EDGE_LOOP('',(#373));
#1006=EDGE_LOOP('',(#374));
#1007=EDGE_LOOP('',(#375));
#1008=EDGE_LOOP('',(#376));
#1009=EDGE_LOOP('',(#377));
#1010=EDGE_LOOP('',(#378));
#1011=EDGE_LOOP('',(#379));
#1012=EDGE_LOOP('',(#380));
#1013=EDGE_LOOP('',(#381));
#1014=EDGE_LOOP('',(#382));
#1015=EDGE_LOOP('',(#383));
#1016=EDGE_LOOP('',(#384));
#1017=EDGE_LOOP('',(#385));
#1018=EDGE_LOOP('',(#386));
#1019=EDGE_LOOP('',(#387));
#1020=EDGE_LOOP('',(#388));
#1021=EDGE_LOOP('',(#389));
#1022=EDGE_LOOP('',(#390));
#1023=EDGE_LOOP('',(#391));
#1024=EDGE_LOOP('',(#392));
#1025=EDGE_LOOP('',(#393));
#1026=EDGE_LOOP('',(#394));
#1027=EDGE_LOOP('',(#395));
#1028=EDGE_LOOP('',(#396));
#1029=EDGE_LOOP('',(#397));
#1030=EDGE_LOOP('',(#398));
#1031=EDGE_LOOP('',(#399));
#1032=EDGE_LOOP('',(#400));
#1033=EDGE_LOOP('',(#401));
#1034=EDGE_LOOP('',(#402));
#1035=EDGE_LOOP('',(#403));
#1036=EDGE_LOOP('',(#404));
#1037=EDGE_LOOP('',(#405));
#1038=EDGE_LOOP('',(#406));
#1039=EDGE_LOOP('',(#407));
#1040=EDGE_LOOP('',(#408));
#1041=EDGE_LOOP('',(#409));
#1042=EDGE_LOOP('',(#410));
#1043=EDGE_LOOP('',(#411));
#1044=EDGE_LOOP('',(#412));
#1045=EDGE_LOOP('',(#413));
#1046=EDGE_LOOP('',(#414));
#1047=EDGE_LOOP('',(#415));
#1048=EDGE_LOOP('',(#416));
#1049=EDGE_LOOP('',(#417));
#1050=EDGE_LOOP('',(#418));
#1051=EDGE_LOOP('',(#419));
#1052=EDGE_LOOP('',(#420));
#1053=EDGE_LOOP('',(#421));
#1054=EDGE_LOOP('',(#422));
#1055=EDGE_LOOP('',(#423));
#1056=EDGE_LOOP('',(#424));
#1057=FACE_BOUND('',#895,.T.);
#1058=FACE_BOUND('',#896,.T.);
#1059=FACE_BOUND('',#897,.T.);
#1060=FACE_BOUND('',#898,.T.);
#1061=FACE_BOUND('',#899,.T.);
#1062=FACE_BOUND('',#900,.T.);
#1063=FACE_BOUND('',#901,.T.);
#1064=FACE_BOUND('',#902,.T.);
#1065=FACE_BOUND('',#903,.T.);
#1066=FACE_BOUND('',#904,.T.);
#1067=FACE_BOUND('',#905,.T.);
#1068=FACE_BOUND('',#906,.T.);
#1069=FACE_BOUND('',#907,.T.);
#1070=FACE_BOUND('',#908,.T.);
#1071=FACE_BOUND('',#909,.T.);
#1072=FACE_BOUND('',#910,.T.);
#1073=FACE_BOUND('',#911,.T.);
#1074=FACE_BOUND('',#912,.T.);
#1075=FACE_BOUND('',#913,.T.);
#1076=FACE_BOUND('',#914,.T.);
#1077=FACE_BOUND('',#915,.T.);
#1078=FACE_BOUND('',#916,.T.);
#1079=FACE_BOUND('',#917,.T.);
#1080=FACE_BOUND('',#918,.T.);
#1081=FACE_BOUND('',#919,.T.);
#1082=FACE_BOUND('',#920,.T.);
#1083=FACE_BOUND('',#921,.T.);
#1084=FACE_BOUND('',#922,.T.);
#1085=FACE_BOUND('',#923,.T.);
#1086=FACE_BOUND('',#924,.T.);
#1087=FACE_BOUND('',#925,.T.);
#1088=FACE_BOUND('',#926,.T.);
#1089=FACE_BOUND('',#927,.T.);
#1090=FACE_BOUND('',#928,.T.);
#1091=FACE_BOUND('',#929,.T.);
#1092=FACE_BOUND('',#930,.T.);
#1093=FACE_BOUND('',#931,.T.);
#1094=FACE_BOUND('',#932,.T.);
#1095=FACE_BOUND('',#933,.T.);
#1096=FACE_BOUND('',#934,.T.);
#1097=FACE_BOUND('',#935,.T.);
#1098=FACE_BOUND('',#936,.T.);
#1099=FACE_BOUND('',#937,.T.);
#1100=FACE_BOUND('',#938,.T.);
#1101=FACE_BOUND('',#939,.T.);
#1102=FACE_BOUND('',#940,.T.);
#1103=FACE_BOUND('',#941,.T.);
#1104=FACE_BOUND('',#942,.T.);
#1105=FACE_BOUND('',#943,.T.);
#1106=FACE_BOUND('',#944,.T.);
#1107=FACE_BOUND('',#945,.T.);
#1108=FACE_BOUND('',#946,.T.);
#1109=FACE_BOUND('',#947,.T.);
#1110=FACE_BOUND('',#948,.T.);
#1111=FACE_BOUND('',#949,.T.);
#1112=FACE_BOUND('',#950,.T.);
#1113=FACE_BOUND('',#951,.T.);
#1114=FACE_BOUND('',#952,.T.);
#1115=FACE_BOUND('',#953,.T.);
#1116=FACE_BOUND('',#954,.T.);
#1117=FACE_BOUND('',#955,.T.);
#1118=FACE_BOUND('',#956,.T.);
#1119=FACE_BOUND('',#957,.T.);
#1120=FACE_BOUND('',#958,.T.);
#1121=FACE_BOUND('',#959,.T.);
#1122=FACE_BOUND('',#960,.T.);
#1123=FACE_BOUND('',#961,.T.);
#1124=FACE_BOUND('',#962,.T.);
#1125=FACE_BOUND('',#963,.T.);
#1126=FACE_BOUND('',#964,.T.);
#1127=FACE_BOUND('',#965,.T.);
#1128=FACE_BOUND('',#966,.T.);
#1129=FACE_BOUND('',#967,.T.);
#1130=FACE_BOUND('',#968,.T.);
#1131=FACE_BOUND('',#969,.T.);
#1132=FACE_BOUND('',#970,.T.);
#1133=FACE_BOUND('',#971,.T.);
#1134=FACE_BOUND('',#972,.T.);
#1135=FACE_BOUND('',#973,.T.);
#1136=FACE_BOUND('',#974,.T.);
#1137=FACE_BOUND('',#975,.T.);
#1138=FACE_BOUND('',#976,.T.);
#1139=FACE_BOUND('',#977,.T.);
#1140=FACE_BOUND('',#978,.T.);
#1141=FACE_BOUND('',#979,.T.);
#1142=FACE_BOUND('',#980,.T.);
#1143=FACE_BOUND('',#981,.T.);
#1144=FACE_BOUND('',#982,.T.);
#1145=FACE_BOUND('',#983,.T.);
#1146=FACE_BOUND('',#984,.T.);
#1147=FACE_BOUND('',#985,.T.);
#1148=FACE_BOUND('',#986,.T.);
#1149=FACE_BOUND('',#987,.T.);
#1150=FACE_BOUND('',#988,.T.);
#1151=FACE_BOUND('',#989,.T.);
#1152=FACE_BOUND('',#990,.T.);
#1153=FACE_BOUND('',#991,.T.);
#1154=FACE_BOUND('',#992,.T.);
#1155=FACE_BOUND('',#993,.T.);
#1156=FACE_BOUND('',#994,.T.);
#1157=FACE_BOUND('',#995,.T.);
#1158=FACE_BOUND('',#996,.T.);
#1159=FACE_BOUND('',#997,.T.);
#1160=FACE_BOUND('',#998,.T.);
#1161=FACE_BOUND('',#999,.T.);
#1162=FACE_BOUND('',#1000,.T.);
#1163=FACE_BOUND('',#1001,.T.);
#1164=FACE_BOUND('',#1002,.T.);
#1165=FACE_BOUND('',#1003,.T.);
#1166=FACE_BOUND('',#1004,.T.);
#1167=FACE_BOUND('',#1005,.T.);
#1168=FACE_BOUND('',#1006,.T.);
#1169=FACE_BOUND('',#1007,.T.);
#1170=FACE_BOUND('',#1008,.T.);
#1171=FACE_BOUND('',#1009,.T.);
#1172=FACE_BOUND('',#1010,.T.);
#1173=FACE_BOUND('',#1011,.T.);
#1174=FACE_BOUND('',#1012,.T.);
#1175=FACE_BOUND('',#1013,.T.);
#1176=FACE_BOUND('',#1014,.T.);
#1177=FACE_BOUND('',#1015,.T.);
#1178=FACE_BOUND('',#1016,.T.);
#1179=FACE_BOUND('',#1017,.T.);
#1180=FACE_BOUND('',#1018,.T.);
#1181=FACE_BOUND('',#1019,.T.);
#1182=FACE_BOUND('',#1020,.T.);
#1183=FACE_BOUND('',#1021,.T.);
#1184=FACE_BOUND('',#1022,.T.);
#1185=FACE_BOUND('',#1023,.T.);
#1186=FACE_BOUND('',#1024,.T.);
#1187=FACE_BOUND('',#1025,.T.);
#1188=FACE_BOUND('',#1026,.T.);
#1189=FACE_BOUND('',#1027,.T.);
#1190=FACE_BOUND('',#1028,.T.);
#1191=FACE_BOUND('',#1029,.T.);
#1192=FACE_BOUND('',#1030,.T.);
#1193=FACE_BOUND('',#1031,.T.);
#1194=FACE_BOUND('',#1032,.T.);
#1195=FACE_BOUND('',#1033,.T.);
#1196=FACE_BOUND('',#1034,.T.);
#1197=FACE_BOUND('',#1035,.T.);
#1198=FACE_BOUND('',#1036,.T.);
#1199=FACE_BOUND('',#1037,.T.);
#1200=FACE_BOUND('',#1038,.T.);
#1201=FACE_BOUND('',#1039,.T.);
#1202=FACE_BOUND('',#1040,.T.);
#1203=FACE_BOUND('',#1041,.T.);
#1204=FACE_BOUND('',#1042,.T.);
#1205=FACE_BOUND('',#1043,.T.);
#1206=FACE_BOUND('',#1044,.T.);
#1207=FACE_BOUND('',#1045,.T.);
#1208=FACE_BOUND('',#1046,.T.);
#1209=FACE_BOUND('',#1047,.T.);
#1210=FACE_BOUND('',#1048,.T.);
#1211=FACE_BOUND('',#1049,.T.);
#1212=FACE_BOUND('',#1050,.T.);
#1213=FACE_BOUND('',#1051,.T.);
#1214=FACE_BOUND('',#1052,.T.);
#1215=FACE_BOUND('',#1053,.T.);
#1216=FACE_BOUND('',#1054,.T.);
#1217=FACE_BOUND('',#1055,.T.);
#1218=FACE_BOUND('',#1056,.T.);
#1219=PLANE('',#1355);
#1220=PLANE('',#1356);
#1221=PLANE('',#1357);
#1222=PLANE('',#1358);
#1223=PLANE('',#1359);
#1224=PLANE('',#1360);
#1225=PLANE('',#1362);
#1226=PLANE('',#1363);
#1227=PLANE('',#1364);
#1228=PLANE('',#1365);
#1229=PLANE('',#1366);
#1230=PLANE('',#1367);
#1231=PLANE('',#1368);
#1232=PLANE('',#1369);
#1233=PLANE('',#1370);
#1234=PLANE('',#1371);
#1235=PLANE('',#1372);
#1236=PLANE('',#1373);
#1237=PLANE('',#1374);
#1238=PLANE('',#1390);
#1239=PLANE('',#1391);
#1240=PLANE('',#1392);
#1241=PLANE('',#1393);
#1242=PLANE('',#1394);
#1243=PLANE('',#1395);
#1244=PLANE('',#1396);
#1245=PLANE('',#1397);
#1246=PLANE('',#1398);
#1247=PLANE('',#1399);
#1248=PLANE('',#1415);
#1249=PLANE('',#1416);
#1250=PLANE('',#1417);
#1251=PLANE('',#1433);
#1252=PLANE('',#1434);
#1253=PLANE('',#1435);
#1254=PLANE('',#1436);
#1255=PLANE('',#1437);
#1256=PLANE('',#1438);
#1257=PLANE('',#1439);
#1258=PLANE('',#1440);
#1259=ADVANCED_FACE('',(#1057),#1219,.T.);
#1260=ADVANCED_FACE('',(#1058),#1220,.F.);
#1261=ADVANCED_FACE('',(#1059),#1221,.F.);
#1262=ADVANCED_FACE('',(#1060),#1222,.T.);
#1263=ADVANCED_FACE('',(#1061),#1223,.T.);
#1264=ADVANCED_FACE('',(#1062),#1224,.F.);
#1265=ADVANCED_FACE('',(#1063,#1064),#1225,.T.);
#1266=ADVANCED_FACE('',(#1065),#1226,.T.);
#1267=ADVANCED_FACE('',(#1066,#1067),#1227,.T.);
#1268=ADVANCED_FACE('',(#1068),#1228,.T.);
#1269=ADVANCED_FACE('',(#1069),#1229,.T.);
#1270=ADVANCED_FACE('',(#1070),#1230,.F.);
#1271=ADVANCED_FACE('',(#1071),#1231,.T.);
#1272=ADVANCED_FACE('',(#1072),#1232,.F.);
#1273=ADVANCED_FACE('',(#1073),#1233,.F.);
#1274=ADVANCED_FACE('',(#1074),#1234,.T.);
#1275=ADVANCED_FACE('',(#1075),#1235,.F.);
#1276=ADVANCED_FACE('',(#1076),#1236,.F.);
#1277=ADVANCED_FACE('',(#1077,#1078,#1079,#1080,#1081,#1082,#1083,#1084,
#1085,#1086,#1087,#1088,#1089,#1090,#1091,#1092),#1237,.F.);
#1278=ADVANCED_FACE('',(#1093),#1238,.F.);
#1279=ADVANCED_FACE('',(#1094),#1239,.T.);
#1280=ADVANCED_FACE('',(#1095),#1240,.F.);
#1281=ADVANCED_FACE('',(#1096),#1241,.T.);
#1282=ADVANCED_FACE('',(#1097),#1242,.F.);
#1283=ADVANCED_FACE('',(#1098),#1243,.T.);
#1284=ADVANCED_FACE('',(#1099),#1244,.F.);
#1285=ADVANCED_FACE('',(#1100),#1245,.F.);
#1286=ADVANCED_FACE('',(#1101),#1246,.T.);
#1287=ADVANCED_FACE('',(#1102,#1103,#1104,#1105,#1106,#1107,#1108,#1109,
#1110,#1111,#1112,#1113,#1114,#1115,#1116,#1117),#1247,.T.);
#1288=ADVANCED_FACE('',(#1118),#1248,.F.);
#1289=ADVANCED_FACE('',(#1119),#1249,.F.);
#1290=ADVANCED_FACE('',(#1120,#1121,#1122,#1123,#1124,#1125,#1126,#1127,
#1128,#1129,#1130,#1131,#1132,#1133,#1134,#1135),#1250,.F.);
#1291=ADVANCED_FACE('',(#1136),#1251,.T.);
#1292=ADVANCED_FACE('',(#1137),#1252,.T.);
#1293=ADVANCED_FACE('',(#1138),#1253,.F.);
#1294=ADVANCED_FACE('',(#1139),#1254,.T.);
#1295=ADVANCED_FACE('',(#1140),#1255,.F.);
#1296=ADVANCED_FACE('',(#1141),#1256,.F.);
#1297=ADVANCED_FACE('',(#1142),#1257,.T.);
#1298=ADVANCED_FACE('',(#1143,#1144,#1145,#1146,#1147,#1148,#1149,#1150,
#1151,#1152,#1153,#1154,#1155,#1156,#1157,#1158),#1258,.T.);
#1299=ADVANCED_FACE('',(#1159,#1160),#10,.F.);
#1300=ADVANCED_FACE('',(#1161,#1162),#11,.F.);
#1301=ADVANCED_FACE('',(#1163,#1164),#12,.F.);
#1302=ADVANCED_FACE('',(#1165,#1166),#13,.F.);
#1303=ADVANCED_FACE('',(#1167,#1168),#14,.F.);
#1304=ADVANCED_FACE('',(#1169,#1170),#15,.F.);
#1305=ADVANCED_FACE('',(#1171,#1172),#16,.F.);
#1306=ADVANCED_FACE('',(#1173,#1174),#17,.F.);
#1307=ADVANCED_FACE('',(#1175,#1176),#18,.F.);
#1308=ADVANCED_FACE('',(#1177,#1178),#19,.F.);
#1309=ADVANCED_FACE('',(#1179,#1180),#20,.F.);
#1310=ADVANCED_FACE('',(#1181,#1182),#21,.F.);
#1311=ADVANCED_FACE('',(#1183,#1184),#22,.F.);
#1312=ADVANCED_FACE('',(#1185,#1186),#23,.F.);
#1313=ADVANCED_FACE('',(#1187,#1188),#24,.F.);
#1314=ADVANCED_FACE('',(#1189,#1190),#25,.F.);
#1315=ADVANCED_FACE('',(#1191,#1192),#26,.F.);
#1316=ADVANCED_FACE('',(#1193,#1194),#27,.F.);
#1317=ADVANCED_FACE('',(#1195,#1196),#28,.F.);
#1318=ADVANCED_FACE('',(#1197,#1198),#29,.F.);
#1319=ADVANCED_FACE('',(#1199,#1200),#30,.F.);
#1320=ADVANCED_FACE('',(#1201,#1202),#31,.F.);
#1321=ADVANCED_FACE('',(#1203,#1204),#32,.F.);
#1322=ADVANCED_FACE('',(#1205,#1206),#33,.F.);
#1323=ADVANCED_FACE('',(#1207,#1208),#34,.F.);
#1324=ADVANCED_FACE('',(#1209,#1210),#35,.F.);
#1325=ADVANCED_FACE('',(#1211,#1212),#36,.F.);
#1326=ADVANCED_FACE('',(#1213,#1214),#37,.F.);
#1327=ADVANCED_FACE('',(#1215,#1216),#38,.F.);
#1328=ADVANCED_FACE('',(#1217,#1218),#39,.F.);
#1329=CLOSED_SHELL('',(#1259,#1260,#1261,#1262,#1263,#1264));
#1330=CLOSED_SHELL('',(#1265,#1266,#1267,#1268,#1269,#1270,#1271,#1272,
#1273,#1274,#1275,#1276,#1277,#1278,#1279,#1280,#1281,#1282,#1283,#1284,
#1285,#1286,#1287,#1288,#1289,#1290,#1291,#1292,#1293,#1294,#1295,#1296,
#1297,#1298,#1299,#1300,#1301,#1302,#1303,#1304,#1305,#1306,#1307,#1308,
#1309,#1310,#1311,#1312,#1313,#1314,#1315,#1316,#1317,#1318,#1319,#1320,
#1321,#1322,#1323,#1324,#1325,#1326,#1327,#1328));
#1331=STYLED_ITEM('',(#1333),#1346);
#1332=STYLED_ITEM('',(#1334),#1347);
#1333=PRESENTATION_STYLE_ASSIGNMENT((#1335));
#1334=PRESENTATION_STYLE_ASSIGNMENT((#1336));
#1335=SURFACE_STYLE_USAGE(.BOTH.,#1337);
#1336=SURFACE_STYLE_USAGE(.BOTH.,#1338);
#1337=SURFACE_SIDE_STYLE('',(#1339));
#1338=SURFACE_SIDE_STYLE('',(#1340));
#1339=SURFACE_STYLE_FILL_AREA(#1341);
#1340=SURFACE_STYLE_FILL_AREA(#1342);
#1341=FILL_AREA_STYLE('',(#1343));
#1342=FILL_AREA_STYLE('',(#1344));
#1343=FILL_AREA_STYLE_COLOUR('',#1345);
#1344=FILL_AREA_STYLE_COLOUR('',#100);
#1345=COLOUR_RGB('',0.6,0.6,0.6);
#1346=MANIFOLD_SOLID_BREP('Part 1',#1329);
#1347=MANIFOLD_SOLID_BREP('Part 1',#1330);
#1348=SHAPE_DEFINITION_REPRESENTATION(#2210,#1351);
#1349=SHAPE_DEFINITION_REPRESENTATION(#2211,#1352);
#1350=SHAPE_DEFINITION_REPRESENTATION(#2213,#1353);
#1351=SHAPE_REPRESENTATION('Assembly 1',(#1354,#1361,#1486),#2201);
#1352=SHAPE_REPRESENTATION('Part 1',(#1354),#2202);
#1353=SHAPE_REPRESENTATION('Part 1',(#1354),#2203);
#1354=AXIS2_PLACEMENT_3D('',#1849,#1487,#1488);
#1355=AXIS2_PLACEMENT_3D('',#1850,#1489,#1490);
#1356=AXIS2_PLACEMENT_3D('',#1859,#1495,#1496);
#1357=AXIS2_PLACEMENT_3D('',#1865,#1500,#1501);
#1358=AXIS2_PLACEMENT_3D('',#1871,#1505,#1506);
#1359=AXIS2_PLACEMENT_3D('',#1874,#1509,#1510);
#1360=AXIS2_PLACEMENT_3D('',#1875,#1511,#1512);
#1361=AXIS2_PLACEMENT_3D('',#1876,#1513,#1514);
#1362=AXIS2_PLACEMENT_3D('',#1877,#1515,#1516);
#1363=AXIS2_PLACEMENT_3D('',#1898,#1527,#1528);
#1364=AXIS2_PLACEMENT_3D('',#1904,#1532,#1533);
#1365=AXIS2_PLACEMENT_3D('',#1925,#1544,#1545);
#1366=AXIS2_PLACEMENT_3D('',#1931,#1549,#1550);
#1367=AXIS2_PLACEMENT_3D('',#1948,#1560,#1561);
#1368=AXIS2_PLACEMENT_3D('',#1965,#1571,#1572);
#1369=AXIS2_PLACEMENT_3D('',#1966,#1573,#1574);
#1370=AXIS2_PLACEMENT_3D('',#1969,#1577,#1578);
#1371=AXIS2_PLACEMENT_3D('',#1972,#1581,#1582);
#1372=AXIS2_PLACEMENT_3D('',#1974,#1584,#1585);
#1373=AXIS2_PLACEMENT_3D('',#1975,#1586,#1587);
#1374=AXIS2_PLACEMENT_3D('',#1977,#1589,#1590);
#1375=AXIS2_PLACEMENT_3D('',#1978,#1591,#1592);
#1376=AXIS2_PLACEMENT_3D('',#1980,#1593,#1594);
#1377=AXIS2_PLACEMENT_3D('',#1982,#1595,#1596);
#1378=AXIS2_PLACEMENT_3D('',#1984,#1597,#1598);
#1379=AXIS2_PLACEMENT_3D('',#1986,#1599,#1600);
#1380=AXIS2_PLACEMENT_3D('',#1988,#1601,#1602);
#1381=AXIS2_PLACEMENT_3D('',#1990,#1603,#1604);
#1382=AXIS2_PLACEMENT_3D('',#1992,#1605,#1606);
#1383=AXIS2_PLACEMENT_3D('',#1994,#1607,#1608);
#1384=AXIS2_PLACEMENT_3D('',#1996,#1609,#1610);
#1385=AXIS2_PLACEMENT_3D('',#1998,#1611,#1612);
#1386=AXIS2_PLACEMENT_3D('',#2000,#1613,#1614);
#1387=AXIS2_PLACEMENT_3D('',#2002,#1615,#1616);
#1388=AXIS2_PLACEMENT_3D('',#2004,#1617,#1618);
#1389=AXIS2_PLACEMENT_3D('',#2006,#1619,#1620);
#1390=AXIS2_PLACEMENT_3D('',#2017,#1626,#1627);
#1391=AXIS2_PLACEMENT_3D('',#2019,#1629,#1630);
#1392=AXIS2_PLACEMENT_3D('',#2021,#1632,#1633);
#1393=AXIS2_PLACEMENT_3D('',#2024,#1636,#1637);
#1394=AXIS2_PLACEMENT_3D('',#2025,#1638,#1639);
#1395=AXIS2_PLACEMENT_3D('',#2026,#1640,#1641);
#1396=AXIS2_PLACEMENT_3D('',#2032,#1645,#1646);
#1397=AXIS2_PLACEMENT_3D('',#2036,#1649,#1650);
#1398=AXIS2_PLACEMENT_3D('',#2040,#1653,#1654);
#1399=AXIS2_PLACEMENT_3D('',#2042,#1656,#1657);
#1400=AXIS2_PLACEMENT_3D('',#2043,#1658,#1659);
#1401=AXIS2_PLACEMENT_3D('',#2045,#1660,#1661);
#1402=AXIS2_PLACEMENT_3D('',#2047,#1662,#1663);
#1403=AXIS2_PLACEMENT_3D('',#2049,#1664,#1665);
#1404=AXIS2_PLACEMENT_3D('',#2051,#1666,#1667);
#1405=AXIS2_PLACEMENT_3D('',#2053,#1668,#1669);
#1406=AXIS2_PLACEMENT_3D('',#2055,#1670,#1671);
#1407=AXIS2_PLACEMENT_3D('',#2057,#1672,#1673);
#1408=AXIS2_PLACEMENT_3D('',#2059,#1674,#1675);
#1409=AXIS2_PLACEMENT_3D('',#2061,#1676,#1677);
#1410=AXIS2_PLACEMENT_3D('',#2063,#1678,#1679);
#1411=AXIS2_PLACEMENT_3D('',#2065,#1680,#1681);
#1412=AXIS2_PLACEMENT_3D('',#2067,#1682,#1683);
#1413=AXIS2_PLACEMENT_3D('',#2069,#1684,#1685);
#1414=AXIS2_PLACEMENT_3D('',#2071,#1686,#1687);
#1415=AXIS2_PLACEMENT_3D('',#2073,#1688,#1689);
#1416=AXIS2_PLACEMENT_3D('',#2077,#1692,#1693);
#1417=AXIS2_PLACEMENT_3D('',#2081,#1696,#1697);
#1418=AXIS2_PLACEMENT_3D('',#2082,#1698,#1699);
#1419=AXIS2_PLACEMENT_3D('',#2084,#1700,#1701);
#1420=AXIS2_PLACEMENT_3D('',#2086,#1702,#1703);
#1421=AXIS2_PLACEMENT_3D('',#2088,#1704,#1705);
#1422=AXIS2_PLACEMENT_3D('',#2090,#1706,#1707);
#1423=AXIS2_PLACEMENT_3D('',#2092,#1708,#1709);
#1424=AXIS2_PLACEMENT_3D('',#2094,#1710,#1711);
#1425=AXIS2_PLACEMENT_3D('',#2096,#1712,#1713);
#1426=AXIS2_PLACEMENT_3D('',#2098,#1714,#1715);
#1427=AXIS2_PLACEMENT_3D('',#2100,#1716,#1717);
#1428=AXIS2_PLACEMENT_3D('',#2102,#1718,#1719);
#1429=AXIS2_PLACEMENT_3D('',#2104,#1720,#1721);
#1430=AXIS2_PLACEMENT_3D('',#2106,#1722,#1723);
#1431=AXIS2_PLACEMENT_3D('',#2108,#1724,#1725);
#1432=AXIS2_PLACEMENT_3D('',#2110,#1726,#1727);
#1433=AXIS2_PLACEMENT_3D('',#2117,#1731,#1732);
#1434=AXIS2_PLACEMENT_3D('',#2120,#1735,#1736);
#1435=AXIS2_PLACEMENT_3D('',#2121,#1737,#1738);
#1436=AXIS2_PLACEMENT_3D('',#2122,#1739,#1740);
#1437=AXIS2_PLACEMENT_3D('',#2128,#1744,#1745);
#1438=AXIS2_PLACEMENT_3D('',#2132,#1748,#1749);
#1439=AXIS2_PLACEMENT_3D('',#2136,#1752,#1753);
#1440=AXIS2_PLACEMENT_3D('',#2138,#1755,#1756);
#1441=AXIS2_PLACEMENT_3D('',#2139,#1757,#1758);
#1442=AXIS2_PLACEMENT_3D('',#2141,#1759,#1760);
#1443=AXIS2_PLACEMENT_3D('',#2143,#1761,#1762);
#1444=AXIS2_PLACEMENT_3D('',#2145,#1763,#1764);
#1445=AXIS2_PLACEMENT_3D('',#2147,#1765,#1766);
#1446=AXIS2_PLACEMENT_3D('',#2149,#1767,#1768);
#1447=AXIS2_PLACEMENT_3D('',#2151,#1769,#1770);
#1448=AXIS2_PLACEMENT_3D('',#2153,#1771,#1772);
#1449=AXIS2_PLACEMENT_3D('',#2155,#1773,#1774);
#1450=AXIS2_PLACEMENT_3D('',#2157,#1775,#1776);
#1451=AXIS2_PLACEMENT_3D('',#2159,#1777,#1778);
#1452=AXIS2_PLACEMENT_3D('',#2161,#1779,#1780);
#1453=AXIS2_PLACEMENT_3D('',#2163,#1781,#1782);
#1454=AXIS2_PLACEMENT_3D('',#2165,#1783,#1784);
#1455=AXIS2_PLACEMENT_3D('',#2167,#1785,#1786);
#1456=AXIS2_PLACEMENT_3D('',#2169,#1787,#1788);
#1457=AXIS2_PLACEMENT_3D('',#2170,#1789,#1790);
#1458=AXIS2_PLACEMENT_3D('',#2171,#1791,#1792);
#1459=AXIS2_PLACEMENT_3D('',#2172,#1793,#1794);
#1460=AXIS2_PLACEMENT_3D('',#2173,#1795,#1796);
#1461=AXIS2_PLACEMENT_3D('',#2174,#1797,#1798);
#1462=AXIS2_PLACEMENT_3D('',#2175,#1799,#1800);
#1463=AXIS2_PLACEMENT_3D('',#2176,#1801,#1802);
#1464=AXIS2_PLACEMENT_3D('',#2177,#1803,#1804);
#1465=AXIS2_PLACEMENT_3D('',#2178,#1805,#1806);
#1466=AXIS2_PLACEMENT_3D('',#2179,#1807,#1808);
#1467=AXIS2_PLACEMENT_3D('',#2180,#1809,#1810);
#1468=AXIS2_PLACEMENT_3D('',#2181,#1811,#1812);
#1469=AXIS2_PLACEMENT_3D('',#2182,#1813,#1814);
#1470=AXIS2_PLACEMENT_3D('',#2183,#1815,#1816);
#1471=AXIS2_PLACEMENT_3D('',#2184,#1817,#1818);
#1472=AXIS2_PLACEMENT_3D('',#2185,#1819,#1820);
#1473=AXIS2_PLACEMENT_3D('',#2186,#1821,#1822);
#1474=AXIS2_PLACEMENT_3D('',#2187,#1823,#1824);
#1475=AXIS2_PLACEMENT_3D('',#2188,#1825,#1826);
#1476=AXIS2_PLACEMENT_3D('',#2189,#1827,#1828);
#1477=AXIS2_PLACEMENT_3D('',#2190,#1829,#1830);
#1478=AXIS2_PLACEMENT_3D('',#2191,#1831,#1832);
#1479=AXIS2_PLACEMENT_3D('',#2192,#1833,#1834);
#1480=AXIS2_PLACEMENT_3D('',#2193,#1835,#1836);
#1481=AXIS2_PLACEMENT_3D('',#2194,#1837,#1838);
#1482=AXIS2_PLACEMENT_3D('',#2195,#1839,#1840);
#1483=AXIS2_PLACEMENT_3D('',#2196,#1841,#1842);
#1484=AXIS2_PLACEMENT_3D('',#2197,#1843,#1844);
#1485=AXIS2_PLACEMENT_3D('',#2198,#1845,#1846);
#1486=AXIS2_PLACEMENT_3D('',#2199,#1847,#1848);
#1487=DIRECTION('',(0.,0.,1.));
#1488=DIRECTION('',(1.,0.,0.));
#1489=DIRECTION('',(0.,1.,0.));
#1490=DIRECTION('',(0.,0.,1.));
#1491=DIRECTION('',(1.,0.,0.));
#1492=DIRECTION('',(0.,0.,-1.));
#1493=DIRECTION('',(1.,0.,0.));
#1494=DIRECTION('',(0.,0.,-1.));
#1495=DIRECTION('',(1.,-1.7347234759768E-16,0.));
#1496=DIRECTION('',(1.7347234759768E-16,1.,0.));
#1497=DIRECTION('',(-1.7347234759768E-16,-1.,0.));
#1498=DIRECTION('',(0.,0.,-1.));
#1499=DIRECTION('',(-1.7347234759768E-16,-1.,0.));
#1500=DIRECTION('',(0.,1.,0.));
#1501=DIRECTION('',(0.,0.,1.));
#1502=DIRECTION('',(1.,0.,0.));
#1503=DIRECTION('',(0.,0.,-1.));
#1504=DIRECTION('',(1.,0.,0.));
#1505=DIRECTION('',(1.,-1.7347234759768E-16,0.));
#1506=DIRECTION('',(1.7347234759768E-16,1.,0.));
#1507=DIRECTION('',(-1.7347234759768E-16,-1.,0.));
#1508=DIRECTION('',(-1.7347234759768E-16,-1.,0.));
#1509=DIRECTION('',(0.,0.,1.));
#1510=DIRECTION('',(1.,0.,0.));
#1511=DIRECTION('',(0.,0.,1.));
#1512=DIRECTION('',(1.,0.,0.));
#1513=DIRECTION('',(0.,0.,1.));
#1514=DIRECTION('',(1.,0.,0.));
#1515=DIRECTION('',(0.,-3.00685402502646E-16,1.));
#1516=DIRECTION('',(0.,-1.,-3.00685402502646E-16));
#1517=DIRECTION('',(0.,1.,3.00685402502646E-16));
#1518=DIRECTION('',(-1.,0.,0.));
#1519=DIRECTION('',(0.,1.,3.00685402502646E-16));
#1520=DIRECTION('',(-1.,0.,0.));
#1521=DIRECTION('',(0.,1.,3.00685402502646E-16));
#1522=DIRECTION('',(0.,1.,3.00685402502646E-16));
#1523=DIRECTION('',(1.,0.,0.));
#1524=DIRECTION('',(-1.98254111540206E-16,1.,3.00685402502646E-16));
#1525=DIRECTION('',(1.,0.,0.));
#1526=DIRECTION('',(0.,1.,3.00685402502646E-16));
#1527=DIRECTION('',(1.,0.,0.));
#1528=DIRECTION('',(0.,1.,0.));
#1529=DIRECTION('',(0.,0.,-1.));
#1530=DIRECTION('',(0.,0.,-1.));
#1531=DIRECTION('',(0.,-1.,0.));
#1532=DIRECTION('',(0.,0.,1.));
#1533=DIRECTION('',(1.,0.,0.));
#1534=DIRECTION('',(0.,-1.,0.));
#1535=DIRECTION('',(1.,0.,0.));
#1536=DIRECTION('',(0.,-1.,0.));
#1537=DIRECTION('',(1.,0.,0.));
#1538=DIRECTION('',(0.,-1.,0.));
#1539=DIRECTION('',(0.,-1.,0.));
#1540=DIRECTION('',(-1.,0.,0.));
#1541=DIRECTION('',(0.,-1.,0.));
#1542=DIRECTION('',(-1.,0.,0.));
#1543=DIRECTION('',(0.,-1.,0.));
#1544=DIRECTION('',(-1.,0.,0.));
#1545=DIRECTION('',(0.,-1.,0.));
#1546=DIRECTION('',(0.,0.,-1.));
#1547=DIRECTION('',(0.,0.,-1.));
#1548=DIRECTION('',(0.,-1.,0.));
#1549=DIRECTION('',(0.,1.,0.));
#1550=DIRECTION('',(0.,0.,1.));
#1551=DIRECTION('',(1.,0.,0.));
#1552=DIRECTION('',(0.,0.,-1.));
#1553=DIRECTION('',(1.,0.,0.));
#1554=DIRECTION('',(0.,0.,-1.));
#1555=DIRECTION('',(1.,0.,0.));
#1556=DIRECTION('',(0.,0.,-1.));
#1557=DIRECTION('',(0.,0.,-1.));
#1558=DIRECTION('',(-1.,0.,0.));
#1559=DIRECTION('',(0.,0.,-1.));
#1560=DIRECTION('',(0.,1.,0.));
#1561=DIRECTION('',(0.,0.,1.));
#1562=DIRECTION('',(1.,0.,0.));
#1563=DIRECTION('',(0.,0.,-1.));
#1564=DIRECTION('',(-1.,0.,0.));
#1565=DIRECTION('',(0.,0.,-1.));
#1566=DIRECTION('',(0.,0.,-1.));
#1567=DIRECTION('',(1.,0.,0.));
#1568=DIRECTION('',(0.,0.,-1.));
#1569=DIRECTION('',(1.,0.,0.));
#1570=DIRECTION('',(0.,0.,-1.));
#1571=DIRECTION('',(0.,0.,1.));
#1572=DIRECTION('',(1.,0.,0.));
#1573=DIRECTION('',(0.,0.,1.));
#1574=DIRECTION('',(1.,0.,0.));
#1575=DIRECTION('',(0.,-1.,0.));
#1576=DIRECTION('',(0.,-1.,0.));
#1577=DIRECTION('',(0.,0.,1.));
#1578=DIRECTION('',(1.,0.,0.));
#1579=DIRECTION('',(0.,1.,0.));
#1580=DIRECTION('',(0.,1.,0.));
#1581=DIRECTION('',(1.,0.,0.));
#1582=DIRECTION('',(0.,1.,0.));
#1583=DIRECTION('',(0.,1.,2.77555756156289E-16));
#1584=DIRECTION('',(1.,0.,0.));
#1585=DIRECTION('',(0.,1.,0.));
#1586=DIRECTION('',(-1.,0.,0.));
#1587=DIRECTION('',(0.,-1.,0.));
#1588=DIRECTION('',(0.,-1.,0.));
#1589=DIRECTION('',(0.,0.,1.));
#1590=DIRECTION('',(1.,0.,0.));
#1591=DIRECTION('',(0.,0.,1.));
#1592=DIRECTION('',(1.,0.,0.));
#1593=DIRECTION('',(0.,0.,1.));
#1594=DIRECTION('',(1.,0.,0.));
#1595=DIRECTION('',(0.,0.,1.));
#1596=DIRECTION('',(1.,0.,0.));
#1597=DIRECTION('',(0.,0.,1.));
#1598=DIRECTION('',(1.,0.,0.));
#1599=DIRECTION('',(0.,0.,1.));
#1600=DIRECTION('',(1.,0.,0.));
#1601=DIRECTION('',(0.,0.,1.));
#1602=DIRECTION('',(1.,0.,0.));
#1603=DIRECTION('',(0.,0.,1.));
#1604=DIRECTION('',(1.,0.,0.));
#1605=DIRECTION('',(0.,0.,1.));
#1606=DIRECTION('',(1.,0.,0.));
#1607=DIRECTION('',(0.,0.,1.));
#1608=DIRECTION('',(1.,0.,0.));
#1609=DIRECTION('',(0.,0.,1.));
#1610=DIRECTION('',(1.,0.,0.));
#1611=DIRECTION('',(0.,0.,1.));
#1612=DIRECTION('',(1.,0.,0.));
#1613=DIRECTION('',(0.,0.,1.));
#1614=DIRECTION('',(1.,0.,0.));
#1615=DIRECTION('',(0.,0.,1.));
#1616=DIRECTION('',(1.,0.,0.));
#1617=DIRECTION('',(0.,0.,1.));
#1618=DIRECTION('',(1.,0.,0.));
#1619=DIRECTION('',(0.,0.,1.));
#1620=DIRECTION('',(1.,0.,0.));
#1621=DIRECTION('',(0.,-1.,0.));
#1622=DIRECTION('',(1.,0.,0.));
#1623=DIRECTION('',(0.,-1.,0.));
#1624=DIRECTION('',(1.,0.,0.));
#1625=DIRECTION('',(0.,-1.,0.));
#1626=DIRECTION('',(-1.,0.,0.));
#1627=DIRECTION('',(0.,-1.,0.));
#1628=DIRECTION('',(0.,0.,1.));
#1629=DIRECTION('',(0.,1.,0.));
#1630=DIRECTION('',(0.,0.,1.));
#1631=DIRECTION('',(0.,0.,1.));
#1632=DIRECTION('',(0.,1.,-2.77555756156289E-16));
#1633=DIRECTION('',(0.,2.77555756156289E-16,1.));
#1634=DIRECTION('',(0.,2.77555756156289E-16,1.));
#1635=DIRECTION('',(0.,2.77555756156289E-16,1.));
#1636=DIRECTION('',(-1.,0.,0.));
#1637=DIRECTION('',(0.,-1.,0.));
#1638=DIRECTION('',(-1.,0.,0.));
#1639=DIRECTION('',(0.,-1.,0.));
#1640=DIRECTION('',(-1.,0.,0.));
#1641=DIRECTION('',(0.,0.,1.));
#1642=DIRECTION('',(0.,0.,1.));
#1643=DIRECTION('',(0.,-1.,0.));
#1644=DIRECTION('',(0.,0.,1.));
#1645=DIRECTION('',(0.,1.,0.));
#1646=DIRECTION('',(0.,0.,1.));
#1647=DIRECTION('',(0.,0.,1.));
#1648=DIRECTION('',(-1.,0.,0.));
#1649=DIRECTION('',(-1.,0.,0.));
#1650=DIRECTION('',(0.,0.,1.));
#1651=DIRECTION('',(0.,0.,1.));
#1652=DIRECTION('',(0.,-1.,0.));
#1653=DIRECTION('',(0.,1.,0.));
#1654=DIRECTION('',(0.,0.,1.));
#1655=DIRECTION('',(-1.,0.,0.));
#1656=DIRECTION('',(0.,0.,1.));
#1657=DIRECTION('',(1.,0.,0.));
#1658=DIRECTION('',(0.,0.,1.));
#1659=DIRECTION('',(1.,0.,0.));
#1660=DIRECTION('',(0.,0.,1.));
#1661=DIRECTION('',(1.,0.,0.));
#1662=DIRECTION('',(0.,0.,1.));
#1663=DIRECTION('',(1.,0.,0.));
#1664=DIRECTION('',(0.,0.,1.));
#1665=DIRECTION('',(1.,0.,0.));
#1666=DIRECTION('',(0.,0.,1.));
#1667=DIRECTION('',(1.,0.,0.));
#1668=DIRECTION('',(0.,0.,1.));
#1669=DIRECTION('',(1.,0.,0.));
#1670=DIRECTION('',(0.,0.,1.));
#1671=DIRECTION('',(1.,0.,0.));
#1672=DIRECTION('',(0.,0.,1.));
#1673=DIRECTION('',(1.,0.,0.));
#1674=DIRECTION('',(0.,0.,1.));
#1675=DIRECTION('',(1.,0.,0.));
#1676=DIRECTION('',(0.,0.,1.));
#1677=DIRECTION('',(1.,0.,0.));
#1678=DIRECTION('',(0.,0.,1.));
#1679=DIRECTION('',(1.,0.,0.));
#1680=DIRECTION('',(0.,0.,1.));
#1681=DIRECTION('',(1.,0.,0.));
#1682=DIRECTION('',(0.,0.,1.));
#1683=DIRECTION('',(1.,0.,0.));
#1684=DIRECTION('',(0.,0.,1.));
#1685=DIRECTION('',(1.,0.,0.));
#1686=DIRECTION('',(0.,0.,1.));
#1687=DIRECTION('',(1.,0.,0.));
#1688=DIRECTION('',(1.,0.,0.));
#1689=DIRECTION('',(0.,1.,0.));
#1690=DIRECTION('',(0.,1.,2.77555756156289E-16));
#1691=DIRECTION('',(0.,0.,-1.));
#1692=DIRECTION('',(0.,1.,0.));
#1693=DIRECTION('',(0.,0.,1.));
#1694=DIRECTION('',(-1.,0.,0.));
#1695=DIRECTION('',(0.,0.,-1.));
#1696=DIRECTION('',(0.,-2.77555756156289E-16,1.));
#1697=DIRECTION('',(0.,-1.,-2.77555756156289E-16));
#1698=DIRECTION('',(0.,-2.77555756156289E-16,1.));
#1699=DIRECTION('',(0.,-1.,-2.77555756156289E-16));
#1700=DIRECTION('',(0.,-2.77555756156289E-16,1.));
#1701=DIRECTION('',(0.,-1.,-2.77555756156289E-16));
#1702=DIRECTION('',(0.,-2.77555756156289E-16,1.));
#1703=DIRECTION('',(0.,-1.,-2.77555756156289E-16));
#1704=DIRECTION('',(0.,-2.77555756156289E-16,1.));
#1705=DIRECTION('',(0.,-1.,-2.77555756156289E-16));
#1706=DIRECTION('',(0.,-2.77555756156289E-16,1.));
#1707=DIRECTION('',(0.,-1.,-2.77555756156289E-16));
#1708=DIRECTION('',(0.,-2.77555756156289E-16,1.));
#1709=DIRECTION('',(0.,-1.,-2.77555756156289E-16));
#1710=DIRECTION('',(0.,-2.77555756156289E-16,1.));
#1711=DIRECTION('',(0.,-1.,-2.77555756156289E-16));
#1712=DIRECTION('',(0.,-2.77555756156289E-16,1.));
#1713=DIRECTION('',(0.,-1.,-2.77555756156289E-16));
#1714=DIRECTION('',(0.,-2.77555756156289E-16,1.));
#1715=DIRECTION('',(0.,-1.,-2.77555756156289E-16));
#1716=DIRECTION('',(0.,-2.77555756156289E-16,1.));
#1717=DIRECTION('',(0.,-1.,-2.77555756156289E-16));
#1718=DIRECTION('',(0.,-2.77555756156289E-16,1.));
#1719=DIRECTION('',(0.,-1.,-2.77555756156289E-16));
#1720=DIRECTION('',(0.,-2.77555756156289E-16,1.));
#1721=DIRECTION('',(0.,-1.,-2.77555756156289E-16));
#1722=DIRECTION('',(0.,-2.77555756156289E-16,1.));
#1723=DIRECTION('',(0.,-1.,-2.77555756156289E-16));
#1724=DIRECTION('',(0.,-2.77555756156289E-16,1.));
#1725=DIRECTION('',(0.,-1.,-2.77555756156289E-16));
#1726=DIRECTION('',(0.,-2.77555756156289E-16,1.));
#1727=DIRECTION('',(0.,-1.,-2.77555756156289E-16));
#1728=DIRECTION('',(0.,1.,2.77555756156289E-16));
#1729=DIRECTION('',(-1.,0.,0.));
#1730=DIRECTION('',(0.,1.,2.77555756156289E-16));
#1731=DIRECTION('',(0.,1.,0.));
#1732=DIRECTION('',(0.,0.,1.));
#1733=DIRECTION('',(0.,0.,-1.));
#1734=DIRECTION('',(0.,0.,-1.));
#1735=DIRECTION('',(1.,0.,0.));
#1736=DIRECTION('',(0.,1.,0.));
#1737=DIRECTION('',(1.,0.,0.));
#1738=DIRECTION('',(0.,1.,0.));
#1739=DIRECTION('',(1.,1.98254111540206E-16,5.96121173262716E-32));
#1740=DIRECTION('',(-1.98254111540206E-16,1.,0.));
#1741=DIRECTION('',(0.,-3.00685402502646E-16,1.));
#1742=DIRECTION('',(-1.98254111540206E-16,1.,3.00685402502646E-16));
#1743=DIRECTION('',(0.,-3.00685402502646E-16,1.));
#1744=DIRECTION('',(0.,-1.,-3.00685402502646E-16));
#1745=DIRECTION('',(0.,3.00685402502646E-16,-1.));
#1746=DIRECTION('',(0.,-3.00685402502646E-16,1.));
#1747=DIRECTION('',(1.,0.,0.));
#1748=DIRECTION('',(1.,0.,0.));
#1749=DIRECTION('',(0.,0.,-1.));
#1750=DIRECTION('',(0.,-3.00685402502646E-16,1.));
#1751=DIRECTION('',(0.,1.,3.00685402502646E-16));
#1752=DIRECTION('',(0.,-1.,-3.00685402502646E-16));
#1753=DIRECTION('',(0.,3.00685402502646E-16,-1.));
#1754=DIRECTION('',(1.,0.,0.));
#1755=DIRECTION('',(0.,-3.00685402502646E-16,1.));
#1756=DIRECTION('',(1.,0.,0.));
#1757=DIRECTION('',(0.,-3.00685402502646E-16,1.));
#1758=DIRECTION('',(0.,-1.,-3.00685402502646E-16));
#1759=DIRECTION('',(0.,-3.00685402502646E-16,1.));
#1760=DIRECTION('',(0.,-1.,-3.00685402502646E-16));
#1761=DIRECTION('',(0.,-3.00685402502646E-16,1.));
#1762=DIRECTION('',(0.,-1.,-3.00685402502646E-16));
#1763=DIRECTION('',(0.,-3.00685402502646E-16,1.));
#1764=DIRECTION('',(0.,-1.,-3.00685402502646E-16));
#1765=DIRECTION('',(0.,-3.00685402502646E-16,1.));
#1766=DIRECTION('',(0.,-1.,-3.00685402502646E-16));
#1767=DIRECTION('',(0.,-3.00685402502646E-16,1.));
#1768=DIRECTION('',(0.,-1.,-3.00685402502646E-16));
#1769=DIRECTION('',(0.,-3.00685402502646E-16,1.));
#1770=DIRECTION('',(0.,-1.,-3.00685402502646E-16));
#1771=DIRECTION('',(0.,-3.00685402502646E-16,1.));
#1772=DIRECTION('',(0.,-1.,-3.00685402502646E-16));
#1773=DIRECTION('',(0.,-3.00685402502646E-16,1.));
#1774=DIRECTION('',(0.,-1.,-3.00685402502646E-16));
#1775=DIRECTION('',(0.,-3.00685402502646E-16,1.));
#1776=DIRECTION('',(0.,-1.,-3.00685402502646E-16));
#1777=DIRECTION('',(0.,-3.00685402502646E-16,1.));
#1778=DIRECTION('',(0.,-1.,-3.00685402502646E-16));
#1779=DIRECTION('',(0.,-3.00685402502646E-16,1.));
#1780=DIRECTION('',(0.,-1.,-3.00685402502646E-16));
#1781=DIRECTION('',(0.,-3.00685402502646E-16,1.));
#1782=DIRECTION('',(0.,-1.,-3.00685402502646E-16));
#1783=DIRECTION('',(0.,-3.00685402502646E-16,1.));
#1784=DIRECTION('',(0.,-1.,-3.00685402502646E-16));
#1785=DIRECTION('',(0.,-3.00685402502646E-16,1.));
#1786=DIRECTION('',(0.,-1.,-3.00685402502646E-16));
#1787=DIRECTION('',(0.,0.,1.));
#1788=DIRECTION('',(1.,0.,0.));
#1789=DIRECTION('',(0.,0.,1.));
#1790=DIRECTION('',(1.,0.,0.));
#1791=DIRECTION('',(0.,0.,1.));
#1792=DIRECTION('',(1.,0.,0.));
#1793=DIRECTION('',(0.,0.,1.));
#1794=DIRECTION('',(1.,0.,0.));
#1795=DIRECTION('',(0.,0.,1.));
#1796=DIRECTION('',(1.,0.,0.));
#1797=DIRECTION('',(0.,0.,1.));
#1798=DIRECTION('',(1.,0.,0.));
#1799=DIRECTION('',(0.,0.,1.));
#1800=DIRECTION('',(1.,0.,0.));
#1801=DIRECTION('',(0.,0.,1.));
#1802=DIRECTION('',(1.,0.,0.));
#1803=DIRECTION('',(0.,0.,1.));
#1804=DIRECTION('',(1.,0.,0.));
#1805=DIRECTION('',(0.,0.,1.));
#1806=DIRECTION('',(1.,0.,0.));
#1807=DIRECTION('',(0.,0.,1.));
#1808=DIRECTION('',(1.,0.,0.));
#1809=DIRECTION('',(0.,0.,1.));
#1810=DIRECTION('',(1.,0.,0.));
#1811=DIRECTION('',(0.,0.,1.));
#1812=DIRECTION('',(1.,0.,0.));
#1813=DIRECTION('',(0.,0.,1.));
#1814=DIRECTION('',(1.,0.,0.));
#1815=DIRECTION('',(0.,0.,1.));
#1816=DIRECTION('',(1.,0.,0.));
#1817=DIRECTION('',(0.,-3.00685402502646E-16,1.));
#1818=DIRECTION('',(0.,-1.,-3.00685402502646E-16));
#1819=DIRECTION('',(0.,-3.00685402502646E-16,1.));
#1820=DIRECTION('',(0.,-1.,-3.00685402502646E-16));
#1821=DIRECTION('',(0.,-3.00685402502646E-16,1.));
#1822=DIRECTION('',(0.,-1.,-3.00685402502646E-16));
#1823=DIRECTION('',(0.,-3.00685402502646E-16,1.));
#1824=DIRECTION('',(0.,-1.,-3.00685402502646E-16));
#1825=DIRECTION('',(0.,-3.00685402502646E-16,1.));
#1826=DIRECTION('',(0.,-1.,-3.00685402502646E-16));
#1827=DIRECTION('',(0.,-3.00685402502646E-16,1.));
#1828=DIRECTION('',(0.,-1.,-3.00685402502646E-16));
#1829=DIRECTION('',(0.,-3.00685402502646E-16,1.));
#1830=DIRECTION('',(0.,-1.,-3.00685402502646E-16));
#1831=DIRECTION('',(0.,-3.00685402502646E-16,1.));
#1832=DIRECTION('',(0.,-1.,-3.00685402502646E-16));
#1833=DIRECTION('',(0.,-3.00685402502646E-16,1.));
#1834=DIRECTION('',(0.,-1.,-3.00685402502646E-16));
#1835=DIRECTION('',(0.,-3.00685402502646E-16,1.));
#1836=DIRECTION('',(0.,-1.,-3.00685402502646E-16));
#1837=DIRECTION('',(0.,-3.00685402502646E-16,1.));
#1838=DIRECTION('',(0.,-1.,-3.00685402502646E-16));
#1839=DIRECTION('',(0.,-3.00685402502646E-16,1.));
#1840=DIRECTION('',(0.,-1.,-3.00685402502646E-16));
#1841=DIRECTION('',(0.,-3.00685402502646E-16,1.));
#1842=DIRECTION('',(0.,-1.,-3.00685402502646E-16));
#1843=DIRECTION('',(0.,-3.00685402502646E-16,1.));
#1844=DIRECTION('',(0.,-1.,-3.00685402502646E-16));
#1845=DIRECTION('',(0.,-3.00685402502646E-16,1.));
#1846=DIRECTION('',(0.,-1.,-3.00685402502646E-16));
#1847=DIRECTION('',(0.,0.,1.));
#1848=DIRECTION('',(1.,0.,0.));
#1849=CARTESIAN_POINT('',(0.,0.,0.));
#1850=CARTESIAN_POINT('',(8.67361737988404E-18,0.025,0.07));
#1851=CARTESIAN_POINT('',(8.67361737988404E-18,0.025,0.));
#1852=CARTESIAN_POINT('',(-0.015,0.025,0.));
#1853=CARTESIAN_POINT('',(0.015,0.025,0.));
#1854=CARTESIAN_POINT('',(-0.015,0.025,0.07));
#1855=CARTESIAN_POINT('',(-0.015,0.025,0.07));
#1856=CARTESIAN_POINT('',(8.67361737988404E-18,0.025,0.07));
#1857=CARTESIAN_POINT('',(0.015,0.025,0.07));
#1858=CARTESIAN_POINT('',(0.015,0.025,0.07));
#1859=CARTESIAN_POINT('',(-0.015,0.,0.07));
#1860=CARTESIAN_POINT('',(-0.015,0.,0.));
#1861=CARTESIAN_POINT('',(-0.015,-0.025,0.));
#1862=CARTESIAN_POINT('',(-0.015,-0.025,0.07));
#1863=CARTESIAN_POINT('',(-0.015,-0.025,0.07));
#1864=CARTESIAN_POINT('',(-0.015,0.,0.07));
#1865=CARTESIAN_POINT('',(-1.7347234759768E-18,-0.025,0.07));
#1866=CARTESIAN_POINT('',(-1.7347234759768E-18,-0.025,0.));
#1867=CARTESIAN_POINT('',(0.015,-0.025,0.));
#1868=CARTESIAN_POINT('',(0.015,-0.025,0.07));
#1869=CARTESIAN_POINT('',(0.015,-0.025,0.07));
#1870=CARTESIAN_POINT('',(-1.7347234759768E-18,-0.025,0.07));
#1871=CARTESIAN_POINT('',(0.015,-3.46944695195361E-18,0.07));
#1872=CARTESIAN_POINT('',(0.015,-3.46944695195361E-18,0.));
#1873=CARTESIAN_POINT('',(0.015,-3.46944695195361E-18,0.07));
#1874=CARTESIAN_POINT('',(3.46944695195361E-18,0.,0.07));
#1875=CARTESIAN_POINT('',(3.46944695195361E-18,0.,0.));
#1876=CARTESIAN_POINT('',(0.0170255731791258,0.0111405849456787,-0.033033701442182));
#1877=CARTESIAN_POINT('',(0.126,0.,-0.00998594301043679));
#1878=CARTESIAN_POINT('',(0.026,0.,-0.00998594301043679));
#1879=CARTESIAN_POINT('',(0.026,-0.075,-0.00998594301043682));
#1880=CARTESIAN_POINT('',(0.026,-0.00961264727069191,-0.00998594301043679));
#1881=CARTESIAN_POINT('',(0.126,-0.075,-0.00998594301043682));
#1882=CARTESIAN_POINT('',(0.126,-0.075,-0.00998594301043682));
#1883=CARTESIAN_POINT('',(0.126,0.,-0.00998594301043679));
#1884=CARTESIAN_POINT('',(0.126,0.075,-0.00998594301043677));
#1885=CARTESIAN_POINT('',(0.126,0.075,-0.00998594301043677));
#1886=CARTESIAN_POINT('',(0.026,0.075,-0.00998594301043677));
#1887=CARTESIAN_POINT('',(0.026,0.,-0.00998594301043679));
#1888=CARTESIAN_POINT('',(0.026,0.00961264727069191,-0.00998594301043679));
#1889=CARTESIAN_POINT('',(0.026,0.,-0.00998594301043679));
#1890=CARTESIAN_POINT('',(0.076,-0.07,-0.00998594301043681));
#1891=CARTESIAN_POINT('',(0.031,-0.07,-0.00998594301043681));
#1892=CARTESIAN_POINT('',(0.121,-0.07,-0.00998594301043681));
#1893=CARTESIAN_POINT('',(0.031,2.71472671932436E-49,-0.00998594301043679));
#1894=CARTESIAN_POINT('',(0.031,0.07,-0.00998594301043677));
#1895=CARTESIAN_POINT('',(0.076,0.07,-0.00998594301043677));
#1896=CARTESIAN_POINT('',(0.121,0.07,-0.00998594301043677));
#1897=CARTESIAN_POINT('',(0.121,1.38777878078145E-17,-0.00998594301043679));
#1898=CARTESIAN_POINT('',(0.026,0.,-0.025));
#1899=CARTESIAN_POINT('',(0.026,-0.00961264727069191,0.01));
#1900=CARTESIAN_POINT('',(0.026,-0.00961264727069191,0.01));
#1901=CARTESIAN_POINT('',(0.026,0.00961264727069191,0.01));
#1902=CARTESIAN_POINT('',(0.026,0.00961264727069191,0.01));
#1903=CARTESIAN_POINT('',(0.026,0.,0.01));
#1904=CARTESIAN_POINT('',(-0.126,2.77555756156289E-17,-0.01));
#1905=CARTESIAN_POINT('',(-0.026,2.77555756156289E-17,-0.01));
#1906=CARTESIAN_POINT('',(-0.026,0.075,-0.01));
#1907=CARTESIAN_POINT('',(-0.026,0.00961264727069191,-0.01));
#1908=CARTESIAN_POINT('',(-0.126,0.075,-0.01));
#1909=CARTESIAN_POINT('',(-0.126,0.075,-0.01));
#1910=CARTESIAN_POINT('',(-0.126,2.77555756156289E-17,-0.01));
#1911=CARTESIAN_POINT('',(-0.126,-0.075,-0.01));
#1912=CARTESIAN_POINT('',(-0.126,-0.075,-0.01));
#1913=CARTESIAN_POINT('',(-0.026,-0.075,-0.01));
#1914=CARTESIAN_POINT('',(-0.026,2.77555756156289E-17,-0.01));
#1915=CARTESIAN_POINT('',(-0.026,-0.00961264727069191,-0.01));
#1916=CARTESIAN_POINT('',(-0.026,2.77555756156289E-17,-0.01));
#1917=CARTESIAN_POINT('',(-0.076,0.07,-0.01));
#1918=CARTESIAN_POINT('',(-0.031,0.07,-0.01));
#1919=CARTESIAN_POINT('',(-0.121,0.07,-0.01));
#1920=CARTESIAN_POINT('',(-0.031,0.,-0.01));
#1921=CARTESIAN_POINT('',(-0.031,-0.07,-0.01));
#1922=CARTESIAN_POINT('',(-0.076,-0.07,-0.01));
#1923=CARTESIAN_POINT('',(-0.121,-0.07,-0.01));
#1924=CARTESIAN_POINT('',(-0.121,0.,-0.01));
#1925=CARTESIAN_POINT('',(-0.026,0.,-0.025));
#1926=CARTESIAN_POINT('',(-0.026,0.00961264727069191,0.01));
#1927=CARTESIAN_POINT('',(-0.026,0.00961264727069191,0.01));
#1928=CARTESIAN_POINT('',(-0.026,-0.00961264727069191,0.01));
#1929=CARTESIAN_POINT('',(-0.026,-0.00961264727069191,0.01));
#1930=CARTESIAN_POINT('',(-0.026,0.,0.01));
#1931=CARTESIAN_POINT('',(0.,0.00961264727069191,0.01));
#1932=CARTESIAN_POINT('',(0.,0.00961264727069191,0.));
#1933=CARTESIAN_POINT('',(-0.016,0.00961264727069191,0.));
#1934=CARTESIAN_POINT('',(0.016,0.00961264727069191,0.));
#1935=CARTESIAN_POINT('',(-0.016,0.00961264727069191,0.01));
#1936=CARTESIAN_POINT('',(-0.016,0.0096126472706919,-0.06));
#1937=CARTESIAN_POINT('',(-0.026,0.0096126472706919,-0.06));
#1938=CARTESIAN_POINT('',(-0.026,0.00961264727069191,-0.06));
#1939=CARTESIAN_POINT('',(-0.026,0.00961264727069191,0.01));
#1940=CARTESIAN_POINT('',(0.,0.00961264727069191,0.01));
#1941=CARTESIAN_POINT('',(0.026,0.00961264727069191,0.01));
#1942=CARTESIAN_POINT('',(0.026,0.00961264727069191,-0.0599866363570221));
#1943=CARTESIAN_POINT('',(0.026,0.00961264727069191,0.01));
#1944=CARTESIAN_POINT('',(0.026,0.00961264727069191,-0.06));
#1945=CARTESIAN_POINT('',(0.026,0.00961264727069191,-0.06));
#1946=CARTESIAN_POINT('',(0.016,0.00961264727069191,-0.06));
#1947=CARTESIAN_POINT('',(0.016,0.00961264727069191,0.01));
#1948=CARTESIAN_POINT('',(0.,-0.00961264727069191,0.01));
#1949=CARTESIAN_POINT('',(0.,-0.00961264727069191,0.));
#1950=CARTESIAN_POINT('',(-0.016,-0.00961264727069191,0.));
#1951=CARTESIAN_POINT('',(0.016,-0.00961264727069191,0.));
#1952=CARTESIAN_POINT('',(0.016,-0.00961264727069191,0.01));
#1953=CARTESIAN_POINT('',(0.016,-0.0096126472706919,-0.06));
#1954=CARTESIAN_POINT('',(0.026,-0.0096126472706919,-0.06));
#1955=CARTESIAN_POINT('',(0.026,-0.0096126472706919,-0.06));
#1956=CARTESIAN_POINT('',(0.026,-0.00961264727069191,0.01));
#1957=CARTESIAN_POINT('',(0.026,-0.00961264727069191,-0.0599866363570221));
#1958=CARTESIAN_POINT('',(0.026,-0.00961264727069191,0.01));
#1959=CARTESIAN_POINT('',(0.,-0.00961264727069191,0.01));
#1960=CARTESIAN_POINT('',(-0.026,-0.00961264727069191,0.01));
#1961=CARTESIAN_POINT('',(-0.026,-0.00961264727069191,-0.06));
#1962=CARTESIAN_POINT('',(-0.026,-0.00961264727069191,-0.06));
#1963=CARTESIAN_POINT('',(-0.016,-0.00961264727069191,-0.06));
#1964=CARTESIAN_POINT('',(-0.016,-0.00961264727069191,0.01));
#1965=CARTESIAN_POINT('',(0.,0.,0.01));
#1966=CARTESIAN_POINT('',(0.,0.,0.));
#1967=CARTESIAN_POINT('',(0.016,0.,0.));
#1968=CARTESIAN_POINT('',(-0.016,0.,0.));
#1969=CARTESIAN_POINT('',(0.026,1.7347234759768E-18,-0.06));
#1970=CARTESIAN_POINT('',(0.016,1.7347234759768E-18,-0.06));
#1971=CARTESIAN_POINT('',(0.026,1.7347234759768E-18,-0.06));
#1972=CARTESIAN_POINT('',(0.026,0.,-0.025));
#1973=CARTESIAN_POINT('',(0.026,0.,-0.0599866363570221));
#1974=CARTESIAN_POINT('',(0.016,0.,-0.025));
#1975=CARTESIAN_POINT('',(-0.016,0.,-0.025));
#1976=CARTESIAN_POINT('',(-0.016,-1.7347234759768E-18,-0.06));
#1977=CARTESIAN_POINT('',(-0.026,-1.7347234759768E-18,-0.06));
#1978=CARTESIAN_POINT('',(-0.076,0.03,-0.06));
#1979=CARTESIAN_POINT('',(-0.071,0.03,-0.06));
#1980=CARTESIAN_POINT('',(-0.076,0.06,-0.06));
#1981=CARTESIAN_POINT('',(-0.071,0.06,-0.06));
#1982=CARTESIAN_POINT('',(-0.076,-0.03,-0.06));
#1983=CARTESIAN_POINT('',(-0.071,-0.03,-0.06));
#1984=CARTESIAN_POINT('',(-0.076,-0.06,-0.06));
#1985=CARTESIAN_POINT('',(-0.071,-0.06,-0.06));
#1986=CARTESIAN_POINT('',(-0.046,-0.06,-0.06));
#1987=CARTESIAN_POINT('',(-0.041,-0.06,-0.06));
#1988=CARTESIAN_POINT('',(-0.046,-0.03,-0.06));
#1989=CARTESIAN_POINT('',(-0.041,-0.03,-0.06));
#1990=CARTESIAN_POINT('',(-0.046,-3.16328525216678E-18,-0.06));
#1991=CARTESIAN_POINT('',(-0.041,-3.16328525216678E-18,-0.06));
#1992=CARTESIAN_POINT('',(-0.046,0.03,-0.06));
#1993=CARTESIAN_POINT('',(-0.041,0.03,-0.06));
#1994=CARTESIAN_POINT('',(-0.106,0.06,-0.06));
#1995=CARTESIAN_POINT('',(-0.101,0.06,-0.06));
#1996=CARTESIAN_POINT('',(-0.106,0.03,-0.06));
#1997=CARTESIAN_POINT('',(-0.101,0.03,-0.06));
#1998=CARTESIAN_POINT('',(-0.046,0.06,-0.06));
#1999=CARTESIAN_POINT('',(-0.041,0.06,-0.06));
#2000=CARTESIAN_POINT('',(-0.106,-0.06,-0.06));
#2001=CARTESIAN_POINT('',(-0.101,-0.06,-0.06));
#2002=CARTESIAN_POINT('',(-0.106,-0.03,-0.06));
#2003=CARTESIAN_POINT('',(-0.101,-0.03,-0.06));
#2004=CARTESIAN_POINT('',(-0.106,-3.16328525216678E-18,-0.06));
#2005=CARTESIAN_POINT('',(-0.101,-3.16328525216678E-18,-0.06));
#2006=CARTESIAN_POINT('',(-0.076,3.06161699786838E-19,-0.06));
#2007=CARTESIAN_POINT('',(-0.071,3.06161699786838E-19,-0.06));
#2008=CARTESIAN_POINT('',(-0.026,1.38777878078145E-17,-0.06));
#2009=CARTESIAN_POINT('',(-0.026,-0.075,-0.06));
#2010=CARTESIAN_POINT('',(-0.126,-0.075,-0.06));
#2011=CARTESIAN_POINT('',(-0.126,-0.075,-0.06));
#2012=CARTESIAN_POINT('',(-0.126,1.38777878078145E-17,-0.06));
#2013=CARTESIAN_POINT('',(-0.126,0.075,-0.06));
#2014=CARTESIAN_POINT('',(-0.126,0.075,-0.06));
#2015=CARTESIAN_POINT('',(-0.026,0.075,-0.06));
#2016=CARTESIAN_POINT('',(-0.026,1.38777878078145E-17,-0.06));
#2017=CARTESIAN_POINT('',(-0.026,1.38777878078145E-17,-0.025));
#2018=CARTESIAN_POINT('',(-0.026,0.075,-0.035));
#2019=CARTESIAN_POINT('',(-0.126,0.075,-0.035));
#2020=CARTESIAN_POINT('',(-0.126,0.075,-0.035));
#2021=CARTESIAN_POINT('',(-0.126,-0.075,-0.035));
#2022=CARTESIAN_POINT('',(-0.026,-0.075,-0.035));
#2023=CARTESIAN_POINT('',(-0.126,-0.075,-0.035));
#2024=CARTESIAN_POINT('',(-0.126,1.38777878078145E-17,-0.025));
#2025=CARTESIAN_POINT('',(-0.026,1.38777878078145E-17,-0.025));
#2026=CARTESIAN_POINT('',(-0.031,0.,-0.055));
#2027=CARTESIAN_POINT('',(-0.031,0.07,-0.055));
#2028=CARTESIAN_POINT('',(-0.031,0.07,-0.055));
#2029=CARTESIAN_POINT('',(-0.031,0.,-0.055));
#2030=CARTESIAN_POINT('',(-0.031,-0.07,-0.055));
#2031=CARTESIAN_POINT('',(-0.031,-0.07,-0.055));
#2032=CARTESIAN_POINT('',(-0.076,0.07,-0.055));
#2033=CARTESIAN_POINT('',(-0.121,0.07,-0.055));
#2034=CARTESIAN_POINT('',(-0.121,0.07,-0.055));
#2035=CARTESIAN_POINT('',(-0.076,0.07,-0.055));
#2036=CARTESIAN_POINT('',(-0.121,0.,-0.055));
#2037=CARTESIAN_POINT('',(-0.121,-0.07,-0.055));
#2038=CARTESIAN_POINT('',(-0.121,-0.07,-0.055));
#2039=CARTESIAN_POINT('',(-0.121,0.,-0.055));
#2040=CARTESIAN_POINT('',(-0.076,-0.07,-0.055));
#2041=CARTESIAN_POINT('',(-0.076,-0.07,-0.055));
#2042=CARTESIAN_POINT('',(-0.076,0.,-0.055));
#2043=CARTESIAN_POINT('',(-0.076,0.03,-0.055));
#2044=CARTESIAN_POINT('',(-0.071,0.03,-0.055));
#2045=CARTESIAN_POINT('',(-0.076,0.06,-0.055));
#2046=CARTESIAN_POINT('',(-0.071,0.06,-0.055));
#2047=CARTESIAN_POINT('',(-0.076,-0.03,-0.055));
#2048=CARTESIAN_POINT('',(-0.071,-0.03,-0.055));
#2049=CARTESIAN_POINT('',(-0.076,-0.06,-0.055));
#2050=CARTESIAN_POINT('',(-0.071,-0.06,-0.055));
#2051=CARTESIAN_POINT('',(-0.046,-0.06,-0.055));
#2052=CARTESIAN_POINT('',(-0.041,-0.06,-0.055));
#2053=CARTESIAN_POINT('',(-0.046,-0.03,-0.055));
#2054=CARTESIAN_POINT('',(-0.041,-0.03,-0.055));
#2055=CARTESIAN_POINT('',(-0.046,-3.16328525216678E-18,-0.055));
#2056=CARTESIAN_POINT('',(-0.041,-3.16328525216678E-18,-0.055));
#2057=CARTESIAN_POINT('',(-0.046,0.03,-0.055));
#2058=CARTESIAN_POINT('',(-0.041,0.03,-0.055));
#2059=CARTESIAN_POINT('',(-0.106,0.06,-0.055));
#2060=CARTESIAN_POINT('',(-0.101,0.06,-0.055));
#2061=CARTESIAN_POINT('',(-0.106,0.03,-0.055));
#2062=CARTESIAN_POINT('',(-0.101,0.03,-0.055));
#2063=CARTESIAN_POINT('',(-0.046,0.06,-0.055));
#2064=CARTESIAN_POINT('',(-0.041,0.06,-0.055));
#2065=CARTESIAN_POINT('',(-0.106,-0.06,-0.055));
#2066=CARTESIAN_POINT('',(-0.101,-0.06,-0.055));
#2067=CARTESIAN_POINT('',(-0.106,-0.03,-0.055));
#2068=CARTESIAN_POINT('',(-0.101,-0.03,-0.055));
#2069=CARTESIAN_POINT('',(-0.106,-3.16328525216678E-18,-0.055));
#2070=CARTESIAN_POINT('',(-0.101,-3.16328525216678E-18,-0.055));
#2071=CARTESIAN_POINT('',(-0.076,3.06161699786838E-19,-0.055));
#2072=CARTESIAN_POINT('',(-0.071,3.06161699786838E-19,-0.055));
#2073=CARTESIAN_POINT('',(0.026,0.,-0.025));
#2074=CARTESIAN_POINT('',(0.026,0.,-0.0599866363570221));
#2075=CARTESIAN_POINT('',(0.026,-0.075,-0.0599866363570221));
#2076=CARTESIAN_POINT('',(0.026,-0.075,-0.0349862896837294));
#2077=CARTESIAN_POINT('',(0.126,-0.075,-0.0349862896837294));
#2078=CARTESIAN_POINT('',(0.126,-0.075,-0.0599866363570221));
#2079=CARTESIAN_POINT('',(0.126,-0.075,-0.0599866363570221));
#2080=CARTESIAN_POINT('',(0.126,-0.075,-0.0349862896837294));
#2081=CARTESIAN_POINT('',(0.126,0.,-0.0599866363570221));
#2082=CARTESIAN_POINT('',(0.046,1.46575510654596E-17,-0.0599866363570221));
#2083=CARTESIAN_POINT('',(0.046,-0.00499999999999999,-0.0599866363570221));
#2084=CARTESIAN_POINT('',(0.046,-0.03,-0.0599866363570221));
#2085=CARTESIAN_POINT('',(0.046,-0.035,-0.0599866363570221));
#2086=CARTESIAN_POINT('',(0.046,-0.06,-0.0599866363570221));
#2087=CARTESIAN_POINT('',(0.046,-0.065,-0.0599866363570221));
#2088=CARTESIAN_POINT('',(0.106,0.06,-0.0599866363570221));
#2089=CARTESIAN_POINT('',(0.106,0.055,-0.0599866363570221));
#2090=CARTESIAN_POINT('',(0.046,0.06,-0.0599866363570221));
#2091=CARTESIAN_POINT('',(0.046,0.055,-0.0599866363570221));
#2092=CARTESIAN_POINT('',(0.076,0.03,-0.0599866363570221));
#2093=CARTESIAN_POINT('',(0.076,0.025,-0.0599866363570221));
#2094=CARTESIAN_POINT('',(0.076,0.06,-0.0599866363570221));
#2095=CARTESIAN_POINT('',(0.076,0.055,-0.0599866363570221));
#2096=CARTESIAN_POINT('',(0.046,0.03,-0.0599866363570221));
#2097=CARTESIAN_POINT('',(0.046,0.025,-0.0599866363570221));
#2098=CARTESIAN_POINT('',(0.106,-0.06,-0.0599866363570221));
#2099=CARTESIAN_POINT('',(0.106,-0.065,-0.0599866363570221));
#2100=CARTESIAN_POINT('',(0.106,-0.03,-0.0599866363570221));
#2101=CARTESIAN_POINT('',(0.106,-0.035,-0.0599866363570221));
#2102=CARTESIAN_POINT('',(0.076,-0.06,-0.0599866363570221));
#2103=CARTESIAN_POINT('',(0.076,-0.065,-0.0599866363570221));
#2104=CARTESIAN_POINT('',(0.076,-0.03,-0.0599866363570221));
#2105=CARTESIAN_POINT('',(0.076,-0.035,-0.0599866363570221));
#2106=CARTESIAN_POINT('',(0.106,2.201720799502E-17,-0.0599866363570221));
#2107=CARTESIAN_POINT('',(0.106,-0.00499999999999998,-0.0599866363570221));
#2108=CARTESIAN_POINT('',(0.106,0.03,-0.0599866363570221));
#2109=CARTESIAN_POINT('',(0.106,0.025,-0.0599866363570221));
#2110=CARTESIAN_POINT('',(0.076,4.60988432132068E-17,-0.0599866363570221));
#2111=CARTESIAN_POINT('',(0.076,-0.00499999999999995,-0.0599866363570221));
#2112=CARTESIAN_POINT('',(0.026,0.,-0.0599866363570221));
#2113=CARTESIAN_POINT('',(0.026,0.075,-0.0599866363570221));
#2114=CARTESIAN_POINT('',(0.126,0.075,-0.0599866363570221));
#2115=CARTESIAN_POINT('',(0.126,0.075,-0.0599866363570221));
#2116=CARTESIAN_POINT('',(0.126,0.,-0.0599866363570221));
#2117=CARTESIAN_POINT('',(0.126,0.075,-0.0349862896837294));
#2118=CARTESIAN_POINT('',(0.026,0.075,-0.0349862896837294));
#2119=CARTESIAN_POINT('',(0.126,0.075,-0.0349862896837294));
#2120=CARTESIAN_POINT('',(0.126,0.,-0.025));
#2121=CARTESIAN_POINT('',(0.026,0.,-0.025));
#2122=CARTESIAN_POINT('',(0.031,1.35308431126191E-17,-0.0549859430104368));
#2123=CARTESIAN_POINT('',(0.031,-0.07,-0.0549859430104368));
#2124=CARTESIAN_POINT('',(0.031,-0.07,-0.0549859430104368));
#2125=CARTESIAN_POINT('',(0.031,1.35308431126191E-17,-0.0549859430104368));
#2126=CARTESIAN_POINT('',(0.031,0.07,-0.0549859430104368));
#2127=CARTESIAN_POINT('',(0.031,0.07,-0.0549859430104368));
#2128=CARTESIAN_POINT('',(0.076,-0.07,-0.0549859430104368));
#2129=CARTESIAN_POINT('',(0.121,-0.07,-0.0549859430104368));
#2130=CARTESIAN_POINT('',(0.121,-0.07,-0.0549859430104368));
#2131=CARTESIAN_POINT('',(0.076,-0.07,-0.0549859430104368));
#2132=CARTESIAN_POINT('',(0.121,2.74086309204335E-17,-0.0549859430104368));
#2133=CARTESIAN_POINT('',(0.121,0.07,-0.0549859430104368));
#2134=CARTESIAN_POINT('',(0.121,0.07,-0.0549859430104368));
#2135=CARTESIAN_POINT('',(0.121,2.74086309204335E-17,-0.0549859430104368));
#2136=CARTESIAN_POINT('',(0.076,0.07,-0.0549859430104368));
#2137=CARTESIAN_POINT('',(0.076,0.07,-0.0549859430104368));
#2138=CARTESIAN_POINT('',(0.076,1.65334704060808E-17,-0.0549859430104368));
#2139=CARTESIAN_POINT('',(0.046,1.31539155737493E-17,-0.0549859430104368));
#2140=CARTESIAN_POINT('',(0.046,-0.00499999999999999,-0.0549859430104368));
#2141=CARTESIAN_POINT('',(0.046,-0.03,-0.0549859430104368));
#2142=CARTESIAN_POINT('',(0.046,-0.035,-0.0549859430104368));
#2143=CARTESIAN_POINT('',(0.046,-0.06,-0.0549859430104368));
#2144=CARTESIAN_POINT('',(0.046,-0.065,-0.0549859430104368));
#2145=CARTESIAN_POINT('',(0.106,0.06,-0.0549859430104368));
#2146=CARTESIAN_POINT('',(0.106,0.055,-0.0549859430104368));
#2147=CARTESIAN_POINT('',(0.046,0.06,-0.0549859430104368));
#2148=CARTESIAN_POINT('',(0.046,0.055,-0.0549859430104368));
#2149=CARTESIAN_POINT('',(0.076,0.03,-0.0549859430104368));
#2150=CARTESIAN_POINT('',(0.076,0.025,-0.0549859430104368));
#2151=CARTESIAN_POINT('',(0.076,0.06,-0.0549859430104368));
#2152=CARTESIAN_POINT('',(0.076,0.055,-0.0549859430104368));
#2153=CARTESIAN_POINT('',(0.046,0.03,-0.0549859430104368));
#2154=CARTESIAN_POINT('',(0.046,0.025,-0.0549859430104368));
#2155=CARTESIAN_POINT('',(0.106,-0.06,-0.0549859430104368));
#2156=CARTESIAN_POINT('',(0.106,-0.065,-0.0549859430104368));
#2157=CARTESIAN_POINT('',(0.106,-0.03,-0.0549859430104368));
#2158=CARTESIAN_POINT('',(0.106,-0.035,-0.0549859430104368));
#2159=CARTESIAN_POINT('',(0.076,-0.06,-0.0549859430104368));
#2160=CARTESIAN_POINT('',(0.076,-0.065,-0.0549859430104368));
#2161=CARTESIAN_POINT('',(0.076,-0.03,-0.0549859430104368));
#2162=CARTESIAN_POINT('',(0.076,-0.035,-0.0549859430104368));
#2163=CARTESIAN_POINT('',(0.106,2.05135725033097E-17,-0.0549859430104368));
#2164=CARTESIAN_POINT('',(0.106,-0.00499999999999998,-0.0549859430104368));
#2165=CARTESIAN_POINT('',(0.106,0.03,-0.0549859430104368));
#2166=CARTESIAN_POINT('',(0.106,0.025,-0.0549859430104368));
#2167=CARTESIAN_POINT('',(0.076,4.45952077214965E-17,-0.0549859430104368));
#2168=CARTESIAN_POINT('',(0.076,-0.00499999999999996,-0.0549859430104368));
#2169=CARTESIAN_POINT('',(-0.076,3.06161699786838E-19,-0.1068));
#2170=CARTESIAN_POINT('',(-0.106,-3.16328525216678E-18,-0.1068));
#2171=CARTESIAN_POINT('',(-0.106,-0.03,-0.1068));
#2172=CARTESIAN_POINT('',(-0.106,-0.06,-0.1068));
#2173=CARTESIAN_POINT('',(-0.046,0.06,-0.1068));
#2174=CARTESIAN_POINT('',(-0.106,0.03,-0.1068));
#2175=CARTESIAN_POINT('',(-0.106,0.06,-0.1068));
#2176=CARTESIAN_POINT('',(-0.046,0.03,-0.1068));
#2177=CARTESIAN_POINT('',(-0.046,-3.16328525216678E-18,-0.1068));
#2178=CARTESIAN_POINT('',(-0.046,-0.03,-0.1068));
#2179=CARTESIAN_POINT('',(-0.046,-0.06,-0.1068));
#2180=CARTESIAN_POINT('',(-0.076,-0.06,-0.1068));
#2181=CARTESIAN_POINT('',(-0.076,-0.03,-0.1068));
#2182=CARTESIAN_POINT('',(-0.076,0.06,-0.1068));
#2183=CARTESIAN_POINT('',(-0.076,0.03,-0.1068));
#2184=CARTESIAN_POINT('',(0.076,5.45779630845844E-17,-0.0881859430104368));
#2185=CARTESIAN_POINT('',(0.106,0.03,-0.0881859430104368));
#2186=CARTESIAN_POINT('',(0.106,3.04963278663975E-17,-0.0881859430104368));
#2187=CARTESIAN_POINT('',(0.076,-0.03,-0.0881859430104368));
#2188=CARTESIAN_POINT('',(0.076,-0.06,-0.0881859430104368));
#2189=CARTESIAN_POINT('',(0.106,-0.03,-0.0881859430104368));
#2190=CARTESIAN_POINT('',(0.106,-0.06,-0.0881859430104368));
#2191=CARTESIAN_POINT('',(0.046,0.03,-0.0881859430104368));
#2192=CARTESIAN_POINT('',(0.076,0.06,-0.0881859430104368));
#2193=CARTESIAN_POINT('',(0.076,0.03,-0.0881859430104368));
#2194=CARTESIAN_POINT('',(0.046,0.06,-0.0881859430104368));
#2195=CARTESIAN_POINT('',(0.106,0.06,-0.0881859430104368));
#2196=CARTESIAN_POINT('',(0.046,-0.06,-0.0881859430104368));
#2197=CARTESIAN_POINT('',(0.046,-0.03,-0.0881859430104368));
#2198=CARTESIAN_POINT('',(0.046,2.31366709368372E-17,-0.0881859430104368));
#2199=CARTESIAN_POINT('',(0.0169094991087913,0.00899999991114309,0.037830544424057));
#2200=MECHANICAL_DESIGN_GEOMETRIC_PRESENTATION_REPRESENTATION('',(#1331,
#1332),#2201);
#2201=(
GEOMETRIC_REPRESENTATION_CONTEXT(3)
GLOBAL_UNCERTAINTY_ASSIGNED_CONTEXT((#2204))
GLOBAL_UNIT_ASSIGNED_CONTEXT((#2209,#2208,#2207))
REPRESENTATION_CONTEXT('Assembly 1','TOP_LEVEL_ASSEMBLY_PART')
);
#2202=(
GEOMETRIC_REPRESENTATION_CONTEXT(3)
GLOBAL_UNCERTAINTY_ASSIGNED_CONTEXT((#2205))
GLOBAL_UNIT_ASSIGNED_CONTEXT((#2209,#2208,#2207))
REPRESENTATION_CONTEXT('Part 1','COMPONENT_PART')
);
#2203=(
GEOMETRIC_REPRESENTATION_CONTEXT(3)
GLOBAL_UNCERTAINTY_ASSIGNED_CONTEXT((#2206))
GLOBAL_UNIT_ASSIGNED_CONTEXT((#2209,#2208,#2207))
REPRESENTATION_CONTEXT('Part 1','COMPONENT_PART')
);
#2204=UNCERTAINTY_MEASURE_WITH_UNIT(LENGTH_MEASURE(1.E-8),#2209,
'DISTANCE_ACCURACY_VALUE','Maximum Tolerance applied to model');
#2205=UNCERTAINTY_MEASURE_WITH_UNIT(LENGTH_MEASURE(1.E-8),#2209,
'DISTANCE_ACCURACY_VALUE','Maximum Tolerance applied to model');
#2206=UNCERTAINTY_MEASURE_WITH_UNIT(LENGTH_MEASURE(1.E-8),#2209,
'DISTANCE_ACCURACY_VALUE','Maximum Tolerance applied to model');
#2207=(
NAMED_UNIT(*)
SI_UNIT($,.STERADIAN.)
SOLID_ANGLE_UNIT()
);
#2208=(
NAMED_UNIT(*)
PLANE_ANGLE_UNIT()
SI_UNIT($,.RADIAN.)
);
#2209=(
LENGTH_UNIT()
NAMED_UNIT(*)
SI_UNIT($,.METRE.)
);
#2210=PRODUCT_DEFINITION_SHAPE('','',#2215);
#2211=PRODUCT_DEFINITION_SHAPE('','',#2216);
#2212=PRODUCT_DEFINITION_SHAPE(' ','NAUO PRDDFN',#103);
#2213=PRODUCT_DEFINITION_SHAPE('','',#2217);
#2214=PRODUCT_DEFINITION_SHAPE(' ','NAUO PRDDFN',#104);
#2215=PRODUCT_DEFINITION('','',#2221,#2218);
#2216=PRODUCT_DEFINITION('','',#2222,#2219);
#2217=PRODUCT_DEFINITION('','',#2223,#2220);
#2218=PRODUCT_DEFINITION_CONTEXT('',#2237,'design');
#2219=PRODUCT_DEFINITION_CONTEXT('',#2237,'design');
#2220=PRODUCT_DEFINITION_CONTEXT('',#2237,'design');
#2221=PRODUCT_DEFINITION_FORMATION_WITH_SPECIFIED_SOURCE('','',#2227,
 .NOT_KNOWN.);
#2222=PRODUCT_DEFINITION_FORMATION_WITH_SPECIFIED_SOURCE('','',#2228,
 .NOT_KNOWN.);
#2223=PRODUCT_DEFINITION_FORMATION_WITH_SPECIFIED_SOURCE('','',#2229,
 .NOT_KNOWN.);
#2224=PRODUCT_RELATED_PRODUCT_CATEGORY('','',(#2227));
#2225=PRODUCT_RELATED_PRODUCT_CATEGORY('','',(#2228));
#2226=PRODUCT_RELATED_PRODUCT_CATEGORY('','',(#2229));
#2227=PRODUCT('Assembly 1','Assembly 1','Assembly 1',(#2233));
#2228=PRODUCT('Part 1','Part 1','Part 1',(#2234));
#2229=PRODUCT('Part 1','Part 1','Part 1',(#2235));
#2230=PRODUCT_CATEGORY('','');
#2231=PRODUCT_CATEGORY('','');
#2232=PRODUCT_CATEGORY('','');
#2233=PRODUCT_CONTEXT('',#2237,'mechanical');
#2234=PRODUCT_CONTEXT('',#2237,'mechanical');
#2235=PRODUCT_CONTEXT('',#2237,'mechanical');
#2236=APPLICATION_PROTOCOL_DEFINITION('international standard',
'ap242_managed_model_based_3d_engineering',2020,#2237);
#2237=APPLICATION_CONTEXT('managed model based 3d engineering');
ENDSEC;
END-ISO-10303-21;
